<svg width="314" height="44" viewBox="0 0 314 44" fill="none" xmlns="http://www.w3.org/2000/svg">
<rect width="314" height="44" rx="22" fill="#2995E2"/>
<circle cx="20.5" cy="21.5" r="14.5" fill="#7CC2F4"/>
<path d="M46.495 21.225H51.535V23.175H46.495V21.225ZM46.675 27H44.245V16.5H52.18V18.45H46.675V27ZM59.2401 27.18C57.7501 27.18 56.5851 26.765 55.7451 25.935C54.9051 25.105 54.4851 23.92 54.4851 22.38V16.5H56.9151V22.29C56.9151 23.29 57.1201 24.01 57.5301 24.45C57.9401 24.89 58.5151 25.11 59.2551 25.11C59.9951 25.11 60.5701 24.89 60.9801 24.45C61.3901 24.01 61.5951 23.29 61.5951 22.29V16.5H63.9951V22.38C63.9951 23.92 63.5751 25.105 62.7351 25.935C61.8951 26.765 60.7301 27.18 59.2401 27.18ZM69.1456 27V18.48H65.7856V16.5H74.9356V18.48H71.5756V27H69.1456ZM81.4823 27.18C79.9923 27.18 78.8273 26.765 77.9873 25.935C77.1473 25.105 76.7273 23.92 76.7273 22.38V16.5H79.1573V22.29C79.1573 23.29 79.3623 24.01 79.7723 24.45C80.1823 24.89 80.7573 25.11 81.4973 25.11C82.2373 25.11 82.8123 24.89 83.2223 24.45C83.6323 24.01 83.8373 23.29 83.8373 22.29V16.5H86.2373V22.38C86.2373 23.92 85.8173 25.105 84.9773 25.935C84.1373 26.765 82.9723 27.18 81.4823 27.18ZM89.3886 27V16.5H93.9336C94.8736 16.5 95.6836 16.655 96.3636 16.965C97.0436 17.265 97.5686 17.7 97.9386 18.27C98.3086 18.84 98.4936 19.52 98.4936 20.31C98.4936 21.09 98.3086 21.765 97.9386 22.335C97.5686 22.895 97.0436 23.325 96.3636 23.625C95.6836 23.925 94.8736 24.075 93.9336 24.075H90.7386L91.8186 23.01V27H89.3886ZM96.0636 27L93.4386 23.19H96.0336L98.6886 27H96.0636ZM91.8186 23.28L90.7386 22.14H93.7986C94.5486 22.14 95.1086 21.98 95.4786 21.66C95.8486 21.33 96.0336 20.88 96.0336 20.31C96.0336 19.73 95.8486 19.28 95.4786 18.96C95.1086 18.64 94.5486 18.48 93.7986 18.48H90.7386L91.8186 17.325V23.28ZM103.404 20.73H108.459V22.62H103.404V20.73ZM103.584 25.05H109.299V27H101.169V16.5H109.104V18.45H103.584V25.05ZM111.224 23.715V21.84H115.469V23.715H111.224ZM118.225 27V16.5H122.77C123.71 16.5 124.52 16.655 125.2 16.965C125.88 17.265 126.405 17.7 126.775 18.27C127.145 18.84 127.33 19.52 127.33 20.31C127.33 21.09 127.145 21.765 126.775 22.335C126.405 22.905 125.88 23.345 125.2 23.655C124.52 23.955 123.71 24.105 122.77 24.105H119.575L120.655 23.01V27H118.225ZM120.655 23.28L119.575 22.125H122.635C123.385 22.125 123.945 21.965 124.315 21.645C124.685 21.325 124.87 20.88 124.87 20.31C124.87 19.73 124.685 19.28 124.315 18.96C123.945 18.64 123.385 18.48 122.635 18.48H119.575L120.655 17.325V23.28ZM129.815 27V16.5H134.36C135.3 16.5 136.11 16.655 136.79 16.965C137.47 17.265 137.995 17.7 138.365 18.27C138.735 18.84 138.92 19.52 138.92 20.31C138.92 21.09 138.735 21.765 138.365 22.335C137.995 22.895 137.47 23.325 136.79 23.625C136.11 23.925 135.3 24.075 134.36 24.075H131.165L132.245 23.01V27H129.815ZM136.49 27L133.865 23.19H136.46L139.115 27H136.49ZM132.245 23.28L131.165 22.14H134.225C134.975 22.14 135.535 21.98 135.905 21.66C136.275 21.33 136.46 20.88 136.46 20.31C136.46 19.73 136.275 19.28 135.905 18.96C135.535 18.64 134.975 18.48 134.225 18.48H131.165L132.245 17.325V23.28ZM146.696 27.18C145.866 27.18 145.096 27.045 144.386 26.775C143.686 26.505 143.076 26.125 142.556 25.635C142.046 25.145 141.646 24.57 141.356 23.91C141.076 23.25 140.936 22.53 140.936 21.75C140.936 20.97 141.076 20.25 141.356 19.59C141.646 18.93 142.051 18.355 142.571 17.865C143.091 17.375 143.701 16.995 144.401 16.725C145.101 16.455 145.861 16.32 146.681 16.32C147.511 16.32 148.271 16.455 148.961 16.725C149.661 16.995 150.266 17.375 150.776 17.865C151.296 18.355 151.701 18.93 151.991 19.59C152.281 20.24 152.426 20.96 152.426 21.75C152.426 22.53 152.281 23.255 151.991 23.925C151.701 24.585 151.296 25.16 150.776 25.65C150.266 26.13 149.661 26.505 148.961 26.775C148.271 27.045 147.516 27.18 146.696 27.18ZM146.681 25.11C147.151 25.11 147.581 25.03 147.971 24.87C148.371 24.71 148.721 24.48 149.021 24.18C149.321 23.88 149.551 23.525 149.711 23.115C149.881 22.705 149.966 22.25 149.966 21.75C149.966 21.25 149.881 20.795 149.711 20.385C149.551 19.975 149.321 19.62 149.021 19.32C148.731 19.02 148.386 18.79 147.986 18.63C147.586 18.47 147.151 18.39 146.681 18.39C146.211 18.39 145.776 18.47 145.376 18.63C144.986 18.79 144.641 19.02 144.341 19.32C144.041 19.62 143.806 19.975 143.636 20.385C143.476 20.795 143.396 21.25 143.396 21.75C143.396 22.24 143.476 22.695 143.636 23.115C143.806 23.525 144.036 23.88 144.326 24.18C144.626 24.48 144.976 24.71 145.376 24.87C145.776 25.03 146.211 25.11 146.681 25.11ZM160.102 27.18C159.272 27.18 158.502 27.045 157.792 26.775C157.092 26.505 156.482 26.125 155.962 25.635C155.452 25.145 155.052 24.57 154.762 23.91C154.482 23.25 154.342 22.53 154.342 21.75C154.342 20.97 154.482 20.25 154.762 19.59C155.052 18.93 155.457 18.355 155.977 17.865C156.497 17.375 157.107 16.995 157.807 16.725C158.507 16.455 159.267 16.32 160.087 16.32C160.917 16.32 161.677 16.455 162.367 16.725C163.067 16.995 163.672 17.375 164.182 17.865C164.702 18.355 165.107 18.93 165.397 19.59C165.687 20.24 165.832 20.96 165.832 21.75C165.832 22.53 165.687 23.255 165.397 23.925C165.107 24.585 164.702 25.16 164.182 25.65C163.672 26.13 163.067 26.505 162.367 26.775C161.677 27.045 160.922 27.18 160.102 27.18ZM160.087 25.11C160.557 25.11 160.987 25.03 161.377 24.87C161.777 24.71 162.127 24.48 162.427 24.18C162.727 23.88 162.957 23.525 163.117 23.115C163.287 22.705 163.372 22.25 163.372 21.75C163.372 21.25 163.287 20.795 163.117 20.385C162.957 19.975 162.727 19.62 162.427 19.32C162.137 19.02 161.792 18.79 161.392 18.63C160.992 18.47 160.557 18.39 160.087 18.39C159.617 18.39 159.182 18.47 158.782 18.63C158.392 18.79 158.047 19.02 157.747 19.32C157.447 19.62 157.212 19.975 157.042 20.385C156.882 20.795 156.802 21.25 156.802 21.75C156.802 22.24 156.882 22.695 157.042 23.115C157.212 23.525 157.442 23.88 157.732 24.18C158.032 24.48 158.382 24.71 158.782 24.87C159.182 25.03 159.617 25.11 160.087 25.11ZM170.658 21.225H175.698V23.175H170.658V21.225ZM170.838 27H168.408V16.5H176.343V18.45H170.838V27ZM186.346 27V22.71L186.901 24.18L182.281 16.5H184.861L188.401 22.395H186.916L190.471 16.5H192.856L188.236 24.18L188.776 22.71V27H186.346ZM199.269 27.18C198.439 27.18 197.669 27.045 196.959 26.775C196.259 26.505 195.649 26.125 195.129 25.635C194.619 25.145 194.219 24.57 193.929 23.91C193.649 23.25 193.509 22.53 193.509 21.75C193.509 20.97 193.649 20.25 193.929 19.59C194.219 18.93 194.624 18.355 195.144 17.865C195.664 17.375 196.274 16.995 196.974 16.725C197.674 16.455 198.434 16.32 199.254 16.32C200.084 16.32 200.844 16.455 201.534 16.725C202.234 16.995 202.839 17.375 203.349 17.865C203.869 18.355 204.274 18.93 204.564 19.59C204.854 20.24 204.999 20.96 204.999 21.75C204.999 22.53 204.854 23.255 204.564 23.925C204.274 24.585 203.869 25.16 203.349 25.65C202.839 26.13 202.234 26.505 201.534 26.775C200.844 27.045 200.089 27.18 199.269 27.18ZM199.254 25.11C199.724 25.11 200.154 25.03 200.544 24.87C200.944 24.71 201.294 24.48 201.594 24.18C201.894 23.88 202.124 23.525 202.284 23.115C202.454 22.705 202.539 22.25 202.539 21.75C202.539 21.25 202.454 20.795 202.284 20.385C202.124 19.975 201.894 19.62 201.594 19.32C201.304 19.02 200.959 18.79 200.559 18.63C200.159 18.47 199.724 18.39 199.254 18.39C198.784 18.39 198.349 18.47 197.949 18.63C197.559 18.79 197.214 19.02 196.914 19.32C196.614 19.62 196.379 19.975 196.209 20.385C196.049 20.795 195.969 21.25 195.969 21.75C195.969 22.24 196.049 22.695 196.209 23.115C196.379 23.525 196.609 23.88 196.899 24.18C197.199 24.48 197.549 24.71 197.949 24.87C198.349 25.03 198.784 25.11 199.254 25.11ZM212.24 27.18C210.75 27.18 209.585 26.765 208.745 25.935C207.905 25.105 207.485 23.92 207.485 22.38V16.5H209.915V22.29C209.915 23.29 210.12 24.01 210.53 24.45C210.94 24.89 211.515 25.11 212.255 25.11C212.995 25.11 213.57 24.89 213.98 24.45C214.39 24.01 214.595 23.29 214.595 22.29V16.5H216.995V22.38C216.995 23.92 216.575 25.105 215.735 25.935C214.895 26.765 213.73 27.18 212.24 27.18ZM220.146 27V16.5H224.691C225.631 16.5 226.441 16.655 227.121 16.965C227.801 17.265 228.326 17.7 228.696 18.27C229.066 18.84 229.251 19.52 229.251 20.31C229.251 21.09 229.066 21.765 228.696 22.335C228.326 22.895 227.801 23.325 227.121 23.625C226.441 23.925 225.631 24.075 224.691 24.075H221.496L222.576 23.01V27H220.146ZM226.821 27L224.196 23.19H226.791L229.446 27H226.821ZM222.576 23.28L221.496 22.14H224.556C225.306 22.14 225.866 21.98 226.236 21.66C226.606 21.33 226.791 20.88 226.791 20.31C226.791 19.73 226.606 19.28 226.236 18.96C225.866 18.64 225.306 18.48 224.556 18.48H221.496L222.576 17.325V23.28ZM241.95 27.18C241.14 27.18 240.385 27.05 239.685 26.79C238.995 26.52 238.395 26.14 237.885 25.65C237.375 25.16 236.975 24.585 236.685 23.925C236.405 23.265 236.265 22.54 236.265 21.75C236.265 20.96 236.405 20.235 236.685 19.575C236.975 18.915 237.375 18.34 237.885 17.85C238.405 17.36 239.01 16.985 239.7 16.725C240.39 16.455 241.145 16.32 241.965 16.32C242.875 16.32 243.695 16.48 244.425 16.8C245.165 17.11 245.785 17.57 246.285 18.18L244.725 19.62C244.365 19.21 243.965 18.905 243.525 18.705C243.085 18.495 242.605 18.39 242.085 18.39C241.595 18.39 241.145 18.47 240.735 18.63C240.325 18.79 239.97 19.02 239.67 19.32C239.37 19.62 239.135 19.975 238.965 20.385C238.805 20.795 238.725 21.25 238.725 21.75C238.725 22.25 238.805 22.705 238.965 23.115C239.135 23.525 239.37 23.88 239.67 24.18C239.97 24.48 240.325 24.71 240.735 24.87C241.145 25.03 241.595 25.11 242.085 25.11C242.605 25.11 243.085 25.01 243.525 24.81C243.965 24.6 244.365 24.285 244.725 23.865L246.285 25.305C245.785 25.915 245.165 26.38 244.425 26.7C243.695 27.02 242.87 27.18 241.95 27.18ZM247.105 27L251.785 16.5H254.185L258.88 27H256.33L252.49 17.73H253.45L249.595 27H247.105ZM249.445 24.75L250.09 22.905H255.49L256.15 24.75H249.445ZM260.72 27V16.5H265.265C266.205 16.5 267.015 16.655 267.695 16.965C268.375 17.265 268.9 17.7 269.27 18.27C269.64 18.84 269.825 19.52 269.825 20.31C269.825 21.09 269.64 21.765 269.27 22.335C268.9 22.895 268.375 23.325 267.695 23.625C267.015 23.925 266.205 24.075 265.265 24.075H262.07L263.15 23.01V27H260.72ZM267.395 27L264.77 23.19H267.365L270.02 27H267.395ZM263.15 23.28L262.07 22.14H265.13C265.88 22.14 266.44 21.98 266.81 21.66C267.18 21.33 267.365 20.88 267.365 20.31C267.365 19.73 267.18 19.28 266.81 18.96C266.44 18.64 265.88 18.48 265.13 18.48H262.07L263.15 17.325V23.28ZM274.735 20.73H279.79V22.62H274.735V20.73ZM274.915 25.05H280.63V27H272.5V16.5H280.435V18.45H274.915V25.05ZM285.548 20.73H290.603V22.62H285.548V20.73ZM285.728 25.05H291.443V27H283.313V16.5H291.248V18.45H285.728V25.05ZM294.127 27V16.5H298.672C299.612 16.5 300.422 16.655 301.102 16.965C301.782 17.265 302.307 17.7 302.677 18.27C303.047 18.84 303.232 19.52 303.232 20.31C303.232 21.09 303.047 21.765 302.677 22.335C302.307 22.895 301.782 23.325 301.102 23.625C300.422 23.925 299.612 24.075 298.672 24.075H295.477L296.557 23.01V27H294.127ZM300.802 27L298.177 23.19H300.772L303.427 27H300.802ZM296.557 23.28L295.477 22.14H298.537C299.287 22.14 299.847 21.98 300.217 21.66C300.587 21.33 300.772 20.88 300.772 20.31C300.772 19.73 300.587 19.28 300.217 18.96C299.847 18.64 299.287 18.48 298.537 18.48H295.477L296.557 17.325V23.28Z" fill="white"/>
</svg>
