<svg width="364" height="195" viewBox="0 0 364 195" fill="none" xmlns="http://www.w3.org/2000/svg">
<path d="M26.9656 156.887C28.0748 156.427 28.8706 155.43 29.0739 154.247L33.2945 129.673C33.4397 128.827 34.0081 128.115 34.8004 127.787L35.006 127.701C36.5667 127.054 38.3069 128.109 38.4544 129.792L39.9258 146.58C40.1323 148.937 42.5686 150.414 44.7536 149.508L54.1185 145.622C55.2927 145.135 56.1105 144.05 56.2546 142.787L57.0532 135.791C57.1331 135.091 57.5863 134.49 58.237 134.22C59.3831 133.744 60.6748 134.452 60.8903 135.674L62.6362 145.572C62.7252 146.077 62.9238 146.555 63.2181 146.975L68.9915 155.201C69.7044 156.217 69.2933 157.632 68.147 158.107C67.4964 158.377 66.7505 158.273 66.1986 157.836L60.6797 153.46C59.6838 152.671 58.3381 152.483 57.1641 152.97L47.7993 156.855C45.6141 157.762 44.9391 160.53 46.4618 162.341L57.3083 175.239C58.3959 176.532 57.9138 178.509 56.3529 179.157L56.1478 179.242C55.3555 179.571 54.4501 179.47 53.7491 178.976L33.3718 164.607C32.3904 163.914 31.1228 163.774 30.0136 164.234L16.5246 169.83C15.5503 170.234 14.4554 170.235 13.4807 169.832C12.5061 169.429 11.7314 168.655 11.3272 167.681C10.923 166.707 10.9224 165.612 11.3255 164.637C11.7286 163.662 12.5024 162.888 13.4766 162.484L26.9656 156.887Z" stroke="white"/>
<line x1="355.619" y1="34.0428" x2="65.33" y2="145.858" stroke="white"/>
</svg>
