<svg width="38" height="38" viewBox="0 0 38 38" fill="none" xmlns="http://www.w3.org/2000/svg">
<circle cx="18.6823" cy="18.6823" r="18.6823" fill="#212547"/>
<path d="M14.7798 10.7939H21.7545C24.4115 10.7939 26.5704 12.9528 26.5704 15.6098V22.5846C26.5704 23.8618 26.063 25.0868 25.1598 25.9899C24.2567 26.8931 23.0317 27.4004 21.7545 27.4004H14.7798C12.1227 27.4004 9.96387 25.2416 9.96387 22.5846V15.6098C9.96387 14.3326 10.4713 13.1076 11.3744 12.2045C12.2776 11.3013 13.5025 10.7939 14.7798 10.7939ZM14.6137 12.4546C13.8209 12.4546 13.0606 12.7695 12.5 13.3301C11.9394 13.8907 11.6245 14.651 11.6245 15.4438V22.7506C11.6245 24.403 12.9613 25.7398 14.6137 25.7398H21.9205C22.7133 25.7398 23.4736 25.4249 24.0342 24.8643C24.5948 24.3037 24.9097 23.5434 24.9097 22.7506V15.4438C24.9097 13.7914 23.5729 12.4546 21.9205 12.4546H14.6137ZM22.6263 13.7001C22.9016 13.7001 23.1656 13.8094 23.3602 14.0041C23.5549 14.1987 23.6642 14.4627 23.6642 14.738C23.6642 15.0133 23.5549 15.2773 23.3602 15.4719C23.1656 15.6665 22.9016 15.7759 22.6263 15.7759C22.3511 15.7759 22.0871 15.6665 21.8924 15.4719C21.6978 15.2773 21.5884 15.0133 21.5884 14.738C21.5884 14.4627 21.6978 14.1987 21.8924 14.0041C22.0871 13.8094 22.3511 13.7001 22.6263 13.7001ZM18.2671 14.9456C19.3682 14.9456 20.4242 15.383 21.2028 16.1616C21.9813 16.9401 22.4187 17.9961 22.4187 19.0972C22.4187 20.1983 21.9813 21.2543 21.2028 22.0328C20.4242 22.8114 19.3682 23.2488 18.2671 23.2488C17.166 23.2488 16.1101 22.8114 15.3315 22.0328C14.5529 21.2543 14.1155 20.1983 14.1155 19.0972C14.1155 17.9961 14.5529 16.9401 15.3315 16.1616C16.1101 15.383 17.166 14.9456 18.2671 14.9456ZM18.2671 16.6062C17.6065 16.6062 16.9729 16.8687 16.5057 17.3358C16.0386 17.803 15.7761 18.4365 15.7761 19.0972C15.7761 19.7578 16.0386 20.3914 16.5057 20.8586C16.9729 21.3257 17.6065 21.5882 18.2671 21.5882C18.9278 21.5882 19.5614 21.3257 20.0285 20.8586C20.4957 20.3914 20.7581 19.7578 20.7581 19.0972C20.7581 18.4365 20.4957 17.803 20.0285 17.3358C19.5614 16.8687 18.9278 16.6062 18.2671 16.6062Z" fill="white"/>
</svg>
