<svg width="38" height="38" viewBox="0 0 38 38" fill="none" xmlns="http://www.w3.org/2000/svg">
<circle cx="19.1589" cy="18.6823" r="18.6823" fill="#212547"/>
<path d="M18.7437 12.1807C19.4536 12.1807 20.1818 12.1989 20.8876 12.2288L21.7212 12.2687L22.5192 12.316L23.2665 12.3667L23.949 12.4198C24.6898 12.4762 25.3869 12.7921 25.9177 13.3121C26.4484 13.832 26.7786 14.5225 26.8501 15.262L26.8834 15.6149L26.9456 16.3705C27.0038 17.1535 27.0469 18.0071 27.0469 18.8233C27.0469 19.6395 27.0038 20.493 26.9456 21.276L26.8834 22.0316L26.8501 22.3845C26.7785 23.1241 26.4482 23.8148 25.9173 24.3347C25.3865 24.8547 24.6891 25.1705 23.9482 25.2267L23.2673 25.279L22.52 25.3305L21.7212 25.3778L20.8876 25.4177C20.1734 25.4486 19.4586 25.4647 18.7437 25.4659C18.0288 25.4647 17.314 25.4486 16.5998 25.4177L15.7661 25.3778L14.9682 25.3305L14.2209 25.279L13.5384 25.2267C12.7976 25.1704 12.1004 24.8544 11.5697 24.3345C11.039 23.8145 10.7088 23.124 10.6372 22.3845L10.604 22.0316L10.5417 21.276C10.4785 20.4599 10.4447 19.6418 10.4404 18.8233C10.4404 18.0071 10.4836 17.1535 10.5417 16.3705L10.604 15.6149L10.6372 15.262C10.7088 14.5226 11.0389 13.8322 11.5694 13.3123C12.0999 12.7924 12.7969 12.4764 13.5375 12.4198L14.2192 12.3667L14.9665 12.316L15.7653 12.2687L16.5989 12.2288C17.3134 12.1979 18.0285 12.1818 18.7437 12.1807ZM18.7437 13.8413C18.0587 13.8413 17.3537 13.8596 16.6679 13.8878L15.8558 13.9268L15.0761 13.9725L14.3438 14.0223L13.6729 14.0746C13.3202 14.0993 12.9876 14.2483 12.7343 14.495C12.4811 14.7418 12.3235 15.0703 12.2896 15.4223C12.1924 16.4261 12.1011 17.6758 12.1011 18.8233C12.1011 19.9708 12.1924 21.2204 12.2896 22.2243C12.3601 22.9483 12.9347 23.5113 13.6729 23.5719L14.3438 23.6234L15.0761 23.6732L15.8558 23.7197L16.6679 23.7587C17.3537 23.7869 18.0587 23.8052 18.7437 23.8052C19.4287 23.8052 20.1336 23.7869 20.8195 23.7587L21.6315 23.7197L22.4112 23.674L23.1436 23.6242L23.8145 23.5719C24.1672 23.5472 24.4997 23.3982 24.753 23.1515C25.0063 22.9048 25.1639 22.5762 25.1978 22.2243C25.2949 21.2204 25.3863 19.9708 25.3863 18.8233C25.3863 17.6758 25.2949 16.4261 25.1978 15.4223C25.1639 15.0703 25.0063 14.7418 24.753 14.495C24.4997 14.2483 24.1672 14.0993 23.8145 14.0746L23.1436 14.0232L22.4112 13.9733L21.6315 13.9268L20.8195 13.8878C20.1279 13.8581 19.4359 13.8426 18.7437 13.8413ZM17.083 16.8097C17.083 16.7286 17.1027 16.6486 17.1406 16.5769C17.1785 16.5051 17.2333 16.4437 17.3004 16.3979C17.3674 16.3522 17.4446 16.3235 17.5252 16.3144C17.6059 16.3052 17.6875 16.316 17.7631 16.3456L17.8303 16.3788L21.3177 18.3915C21.3871 18.4316 21.4459 18.4878 21.4889 18.5554C21.532 18.6231 21.5581 18.7001 21.565 18.78C21.572 18.8598 21.5595 18.9402 21.5287 19.0142C21.498 19.0883 21.4498 19.1538 21.3883 19.2052L21.3177 19.255L17.8303 21.2686C17.76 21.3093 17.6809 21.3322 17.5997 21.3353C17.5186 21.3384 17.4379 21.3216 17.3647 21.2864C17.2915 21.2512 17.2281 21.1986 17.1798 21.1333C17.1316 21.068 17.1001 20.9918 17.088 20.9115L17.083 20.8368V16.8097Z" fill="white"/>
</svg>
