<svg width="9" height="9" viewBox="0 0 9 9" fill="none" xmlns="http://www.w3.org/2000/svg">
<path d="M1.28756 8.47924L0.715698 8.22042C0.874548 7.83218 1.38287 7.60571 1.92295 7.34689C2.46304 7.08806 3.13021 6.79689 3.13021 6.441V5.95571C2.93959 5.79395 2.62189 5.43806 2.55835 4.92042C2.3995 4.75865 2.14534 4.46747 2.14534 4.07924C2.14534 3.85277 2.24065 3.65865 2.30419 3.52924C2.24065 3.27042 2.17711 2.78512 2.17711 2.39689C2.17711 1.13512 3.0349 0.293945 4.40101 0.293945C4.78225 0.293945 5.2588 0.391004 5.51296 0.682181C6.11658 0.811592 6.6249 1.52336 6.6249 2.39689C6.6249 2.94689 6.52959 3.39983 6.46605 3.6263C6.52959 3.72336 6.59313 3.88512 6.59313 4.07924C6.59313 4.49983 6.37074 4.791 6.18012 4.92042C6.11658 5.43806 5.83065 5.76159 5.64003 5.92336V6.441C5.64003 6.73218 6.21189 6.95865 6.72021 7.15277C7.32384 7.37924 7.95924 7.63806 8.18163 8.15571L7.578 8.38218C7.48269 8.12336 6.97437 7.92924 6.49782 7.76747C5.79888 7.50865 5.00464 7.21747 5.00464 6.47336V5.63218L5.16349 5.53512C5.16349 5.53512 5.54473 5.2763 5.54473 4.75865V4.53218L5.73534 4.43512C5.76711 4.43512 5.92596 4.33806 5.92596 4.07924C5.92596 4.01453 5.86242 3.91747 5.83065 3.88512L5.70357 3.75571L5.76711 3.59395C5.76711 3.59395 5.92596 3.0763 5.92596 2.42924C5.92596 1.81453 5.57649 1.36159 5.29057 1.36159H5.09995L5.00464 1.19983C5.00464 1.07042 4.78225 0.941004 4.40101 0.941004C3.41614 0.941004 2.81251 1.491 2.81251 2.39689C2.81251 2.81747 2.97136 3.52924 2.97136 3.52924L3.00313 3.691L2.87605 3.85277C2.84428 3.85277 2.78074 3.94983 2.78074 4.07924C2.78074 4.241 2.97136 4.43512 3.06667 4.49983L3.19375 4.59689V4.75865C3.19375 5.24395 3.60676 5.50277 3.60676 5.53512L3.76561 5.63218V6.47336C3.76561 7.24983 2.93959 7.63806 2.17711 7.96159C1.82765 8.091 1.3511 8.31747 1.28756 8.47924Z" fill="white"/>
</svg>
