<svg width="39" height="39" viewBox="0 0 39 39" fill="none" xmlns="http://www.w3.org/2000/svg">
<path fill-rule="evenodd" clip-rule="evenodd" d="M3.92815 9.85942C3.96254 11.5996 3.01558 13.952 1.78431 15.181C0.641775 16.3245 0 17.8749 0 19.4914C0 21.1079 0.641775 22.6583 1.78431 23.8018C2.99953 25.0124 3.89376 27.1126 3.92815 28.8276C3.96025 30.3454 4.55411 31.8541 5.71201 33.0097C6.7803 34.0801 8.2094 34.7137 9.71997 34.7866C11.5336 34.8783 13.9091 35.933 15.1931 37.2169C16.3366 38.3587 17.8866 39 19.5026 39C21.1186 39 22.6685 38.3587 23.812 37.2169C25.0961 35.933 27.4715 34.8783 29.2852 34.7866C30.7957 34.7137 32.2248 34.0801 33.2931 33.0097C34.4068 31.8975 35.0455 30.3966 35.0747 28.823C35.1091 27.1126 35.9918 25.0262 37.2048 23.8156C38.3517 22.6724 38.9974 21.1204 39 19.5011C39.0026 17.8818 38.3618 16.3278 37.2185 15.181C35.9895 13.9543 35.0403 11.5996 35.077 9.86171C35.0942 9.04115 34.9451 8.22561 34.6385 7.46429C34.3319 6.70296 33.8742 6.01164 33.2931 5.43205C32.6908 4.82822 31.9682 4.35794 31.1722 4.0518C30.3762 3.74565 29.5246 3.6105 28.673 3.65514C27.0358 3.73768 24.9699 2.94438 23.812 1.78423C22.6684 0.641747 21.118 0 19.5014 0C17.8849 0 16.3344 0.641747 15.1908 1.78423C14.0352 2.94208 11.967 3.73768 10.3299 3.65514C9.47857 3.61083 8.62747 3.74614 7.83188 4.05227C7.03629 4.35841 6.31402 4.82852 5.71201 5.43205C5.13118 6.01138 4.67368 6.70232 4.36709 7.46323C4.06051 8.22414 3.9112 9.03925 3.92815 9.85942ZM26.4626 11.7533C26.726 11.8994 26.958 12.096 27.1453 12.3318C27.3327 12.5676 27.4718 12.838 27.5546 13.1276C27.6374 13.4171 27.6624 13.7202 27.6281 14.0194C27.5938 14.3186 27.5008 14.6082 27.3545 14.8714L21.0078 26.2941C20.8434 26.6052 20.6097 26.8743 20.3246 27.0805C19.9103 27.3802 19.4077 27.5329 18.8967 27.5142C18.3857 27.4955 17.8956 27.3065 17.5043 26.9773L11.1783 21.9172C10.9431 21.729 10.7473 21.4963 10.602 21.2325C10.4568 20.9686 10.365 20.6788 10.3317 20.3794C10.2985 20.0801 10.3246 19.7771 10.4085 19.4879C10.4923 19.1986 10.6324 18.9287 10.8206 18.6935C11.0088 18.4584 11.2414 18.2626 11.5053 18.1173C11.7691 17.9721 12.059 17.8802 12.3584 17.847C12.6577 17.8138 12.9607 17.8399 13.25 17.9238C13.5393 18.0076 13.8092 18.1477 14.0444 18.3358L18.2931 21.736L23.3443 12.6429C23.4906 12.3797 23.6874 12.1479 23.9233 11.9608C24.1592 11.7737 24.4296 11.6348 24.7192 11.5522C25.0088 11.4696 25.3118 11.4449 25.6109 11.4793C25.91 11.5138 26.1995 11.6069 26.4626 11.7533Z" fill="white"/>
</svg>
