<svg width="8" height="9" viewBox="0 0 8 9" fill="none" xmlns="http://www.w3.org/2000/svg">
<path fill-rule="evenodd" clip-rule="evenodd" d="M7.38438 7.24119C7.38438 7.77997 6.94955 8.2148 6.41078 8.2148H1.56381C1.02504 8.2148 0.59021 7.77997 0.59021 7.24119V2.39423C0.59021 1.85546 1.02504 1.42063 1.56381 1.42063H2.62846V1.08432C2.62901 1.00438 2.65718 0.927095 2.70819 0.865555C2.75921 0.804014 2.82993 0.762005 2.90838 0.746646L2.96817 0.741211C3.15569 0.741211 3.30788 0.886606 3.30788 1.08432V1.42063H4.66671V1.08432C4.66726 1.00438 4.69543 0.927095 4.74645 0.865555C4.79746 0.804014 4.86819 0.762005 4.94663 0.746646L5.00642 0.741211C5.19394 0.741211 5.34613 0.886606 5.34613 1.08432V1.42063H6.41078C6.94955 1.42063 7.38438 1.85546 7.38438 2.39423V7.24119ZM1.26963 3.45888V7.08017C1.26963 7.33156 1.47345 7.53538 1.72484 7.53538H6.24975C6.50114 7.53538 6.70496 7.33156 6.70496 7.08017V3.45888H1.26963ZM2.28875 6.17655C2.45521 6.17655 2.59449 6.30088 2.62303 6.45647L2.62846 6.51626C2.62846 6.68271 2.50413 6.82199 2.34854 6.85053L2.28875 6.85597C2.19893 6.85508 2.11304 6.81901 2.04952 6.75549C1.986 6.69197 1.94993 6.60608 1.94904 6.51626C1.94904 6.3498 2.07338 6.21052 2.22896 6.18198L2.28875 6.17655ZM3.9873 6.17655C4.15375 6.17655 4.29303 6.30088 4.32157 6.45647L4.327 6.51626C4.327 6.68271 4.20267 6.82199 4.04708 6.85053L3.9873 6.85597C3.89747 6.85508 3.81158 6.81901 3.74806 6.75549C3.68455 6.69197 3.64847 6.60608 3.64759 6.51626C3.64759 6.3498 3.77192 6.21052 3.92751 6.18198L3.9873 6.17655ZM5.68584 6.17655C5.8523 6.17655 5.99158 6.30088 6.02011 6.45647L6.02555 6.51626C6.02555 6.68271 5.90121 6.82199 5.74563 6.85053L5.68584 6.85597C5.59602 6.85508 5.51012 6.81901 5.44661 6.75549C5.38309 6.69197 5.34701 6.60608 5.34613 6.51626C5.34613 6.3498 5.47046 6.21052 5.62605 6.18198L5.68584 6.17655ZM2.28875 5.15742C2.45521 5.15742 2.59449 5.28176 2.62303 5.43734L2.62846 5.49713C2.62846 5.66359 2.50413 5.80287 2.34854 5.8314L2.28875 5.83684C2.19893 5.83595 2.11304 5.79988 2.04952 5.73636C1.986 5.67285 1.94993 5.58695 1.94904 5.49713C1.94904 5.33067 2.07338 5.19139 2.22896 5.16286L2.28875 5.15742ZM3.9873 5.15742C4.15375 5.15742 4.29303 5.28176 4.32157 5.43734L4.327 5.49713C4.327 5.66359 4.20267 5.80287 4.04708 5.8314L3.9873 5.83684C3.89747 5.83595 3.81158 5.79988 3.74806 5.73636C3.68455 5.67285 3.64847 5.58695 3.64759 5.49713C3.64759 5.33067 3.77192 5.19139 3.92751 5.16286L3.9873 5.15742ZM5.68584 5.15742C5.8523 5.15742 5.99158 5.28176 6.02011 5.43734L6.02555 5.49713C6.02555 5.66359 5.90121 5.80287 5.74563 5.8314L5.68584 5.83684C5.59602 5.83595 5.51012 5.79988 5.44661 5.73636C5.38309 5.67285 5.34701 5.58695 5.34613 5.49713C5.34613 5.33067 5.47046 5.19139 5.62605 5.16286L5.68584 5.15742ZM2.28875 4.1383C2.45521 4.1383 2.59449 4.26263 2.62303 4.41822L2.62846 4.47801C2.62846 4.64446 2.50413 4.78374 2.34854 4.81228L2.28875 4.81771C2.19893 4.81683 2.11304 4.78075 2.04952 4.71724C1.986 4.65372 1.94993 4.56783 1.94904 4.47801C1.94904 4.31155 2.07338 4.17227 2.22896 4.14373L2.28875 4.1383ZM3.9873 4.1383C4.15375 4.1383 4.29303 4.26263 4.32157 4.41822L4.327 4.47801C4.327 4.64446 4.20267 4.78374 4.04708 4.81228L3.9873 4.81771C3.89747 4.81683 3.81158 4.78075 3.74806 4.71724C3.68455 4.65372 3.64847 4.56783 3.64759 4.47801C3.64759 4.31155 3.77192 4.17227 3.92751 4.14373L3.9873 4.1383ZM5.68584 4.1383C5.8523 4.1383 5.99158 4.26263 6.02011 4.41822L6.02555 4.47801C6.02555 4.64446 5.90121 4.78374 5.74563 4.81228L5.68584 4.81771C5.59602 4.81683 5.51012 4.78075 5.44661 4.71724C5.38309 4.65372 5.34701 4.56783 5.34613 4.47801C5.34613 4.31155 5.47046 4.17227 5.62605 4.14373L5.68584 4.1383ZM1.26963 2.77946H6.70496V2.55525C6.70496 2.30387 6.50114 2.10005 6.24975 2.10005H1.72484C1.47345 2.10005 1.26963 2.30387 1.26963 2.55525V2.77946Z" fill="#777575"/>
</svg>
