<svg width="11" height="11" viewBox="0 0 11 11" fill="none" xmlns="http://www.w3.org/2000/svg">
<path d="M5.6578 10.33C2.97546 10.33 0.806763 8.16131 0.806763 5.47897C0.806763 2.79663 2.97546 0.62793 5.6578 0.62793C8.34014 0.62793 10.5088 2.79663 10.5088 5.47897C10.5088 8.16131 8.3116 10.33 5.6578 10.33ZM5.6578 1.19864C3.28935 1.19864 1.37747 3.11052 1.37747 5.47897C1.37747 7.84742 3.28935 9.7593 5.6578 9.7593C8.02625 9.7593 9.93813 7.84742 9.93813 5.47897C9.93813 3.11052 7.99771 1.19864 5.6578 1.19864Z" fill="#777575"/>
<path d="M2.86142 8.98804L2.34778 8.75976C2.49046 8.41733 2.94702 8.21758 3.43213 7.9893C3.91723 7.76101 4.51648 7.50419 4.51648 7.1903V6.76227C4.34526 6.61959 4.05991 6.3057 4.00284 5.84913C3.86016 5.70646 3.63188 5.44964 3.63188 5.10721C3.63188 4.90746 3.71748 4.73625 3.77455 4.62211C3.71748 4.39382 3.66041 3.96579 3.66041 3.62336C3.66041 2.51048 4.43087 1.76855 5.6579 1.76855C6.00032 1.76855 6.42836 1.85416 6.65664 2.11098C7.19882 2.22512 7.65538 2.8529 7.65538 3.62336C7.65538 4.10847 7.56978 4.50796 7.51271 4.70771C7.56978 4.79332 7.62685 4.936 7.62685 5.10721C7.62685 5.47817 7.4271 5.73499 7.25589 5.84913C7.19882 6.3057 6.942 6.59106 6.77078 6.73374V7.1903C6.77078 7.44712 7.28442 7.64687 7.74099 7.81809C8.28317 8.01783 8.85388 8.24612 9.05363 8.70269L8.51145 8.90243C8.42584 8.67415 7.96928 8.50294 7.54124 8.36026C6.91346 8.13198 6.20007 7.87516 6.20007 7.21884V6.47692L6.34275 6.39131C6.34275 6.39131 6.68518 6.16302 6.68518 5.70646V5.50671L6.85639 5.4211C6.88493 5.4211 7.0276 5.33549 7.0276 5.10721C7.0276 5.05014 6.97053 4.96453 6.942 4.936L6.82786 4.82186L6.88493 4.67918C6.88493 4.67918 7.0276 4.22261 7.0276 3.6519C7.0276 3.10972 6.71371 2.71023 6.45689 2.71023H6.28568L6.20007 2.56755C6.20007 2.45341 6.00032 2.33927 5.6579 2.33927C4.7733 2.33927 4.23112 2.82437 4.23112 3.62336C4.23112 3.99433 4.3738 4.62211 4.3738 4.62211L4.40234 4.76478L4.28819 4.90746C4.25966 4.90746 4.20259 4.99307 4.20259 5.10721C4.20259 5.24989 4.3738 5.4211 4.45941 5.47817L4.57355 5.56378V5.70646C4.57355 6.13449 4.94451 6.36277 4.94451 6.39131L5.08719 6.47692V7.21884C5.08719 7.90369 4.34526 8.24612 3.66041 8.53147C3.34652 8.64562 2.91849 8.84536 2.86142 8.98804Z" fill="#777575"/>
</svg>
