<svg width="8" height="9" viewBox="0 0 8 9" fill="none" xmlns="http://www.w3.org/2000/svg">
<path fill-rule="evenodd" clip-rule="evenodd" d="M8 7.82755C8 8.47636 7.488 9 6.8536 9H1.1464C0.512 9 0 8.47636 0 7.82755V1.99064C0 1.34182 0.512 0.818182 1.1464 0.818182H2.4V0.413182C2.40065 0.316921 2.43381 0.22385 2.49388 0.14974C2.55395 0.07563 2.63723 0.0250407 2.7296 0.00654537L2.8 0C3.0208 0 3.2 0.175091 3.2 0.413182V0.818182H4.8V0.413182C4.80065 0.316921 4.83381 0.22385 4.89388 0.14974C4.95395 0.07563 5.03723 0.0250407 5.1296 0.00654537L5.2 0C5.4208 0 5.6 0.175091 5.6 0.413182V0.818182H6.8536C7.488 0.818182 8 1.34182 8 1.99064V7.82755ZM0.8 3.27273V7.63364C0.8 7.93636 1.04 8.18182 1.336 8.18182H6.664C6.96 8.18182 7.2 7.93636 7.2 7.63364V3.27273H0.8ZM2 6.54545C2.196 6.54545 2.36 6.69518 2.3936 6.88254L2.4 6.95455C2.4 7.155 2.2536 7.32273 2.0704 7.35709L2 7.36364C1.89424 7.36257 1.7931 7.31913 1.71831 7.24264C1.64352 7.16615 1.60104 7.06271 1.6 6.95455C1.6 6.75409 1.7464 6.58636 1.9296 6.552L2 6.54545ZM4 6.54545C4.196 6.54545 4.36 6.69518 4.3936 6.88254L4.4 6.95455C4.4 7.155 4.2536 7.32273 4.0704 7.35709L4 7.36364C3.89424 7.36257 3.7931 7.31913 3.71831 7.24264C3.64352 7.16615 3.60104 7.06271 3.6 6.95455C3.6 6.75409 3.7464 6.58636 3.9296 6.552L4 6.54545ZM6 6.54545C6.196 6.54545 6.36 6.69518 6.3936 6.88254L6.4 6.95455C6.4 7.155 6.2536 7.32273 6.0704 7.35709L6 7.36364C5.89424 7.36257 5.7931 7.31913 5.71831 7.24264C5.64352 7.16615 5.60104 7.06271 5.6 6.95455C5.6 6.75409 5.7464 6.58636 5.9296 6.552L6 6.54545ZM2 5.31818C2.196 5.31818 2.36 5.46791 2.3936 5.65527L2.4 5.72727C2.4 5.92773 2.2536 6.09545 2.0704 6.12982L2 6.13636C1.89424 6.1353 1.7931 6.09186 1.71831 6.01537C1.64352 5.93888 1.60104 5.83544 1.6 5.72727C1.6 5.52682 1.7464 5.35909 1.9296 5.32473L2 5.31818ZM4 5.31818C4.196 5.31818 4.36 5.46791 4.3936 5.65527L4.4 5.72727C4.4 5.92773 4.2536 6.09545 4.0704 6.12982L4 6.13636C3.89424 6.1353 3.7931 6.09186 3.71831 6.01537C3.64352 5.93888 3.60104 5.83544 3.6 5.72727C3.6 5.52682 3.7464 5.35909 3.9296 5.32473L4 5.31818ZM6 5.31818C6.196 5.31818 6.36 5.46791 6.3936 5.65527L6.4 5.72727C6.4 5.92773 6.2536 6.09545 6.0704 6.12982L6 6.13636C5.89424 6.1353 5.7931 6.09186 5.71831 6.01537C5.64352 5.93888 5.60104 5.83544 5.6 5.72727C5.6 5.52682 5.7464 5.35909 5.9296 5.32473L6 5.31818ZM2 4.09091C2.196 4.09091 2.36 4.24064 2.3936 4.428L2.4 4.5C2.4 4.70045 2.2536 4.86818 2.0704 4.90255L2 4.90909C1.89424 4.90803 1.7931 4.86458 1.71831 4.78809C1.64352 4.7116 1.60104 4.60817 1.6 4.5C1.6 4.29955 1.7464 4.13182 1.9296 4.09745L2 4.09091ZM4 4.09091C4.196 4.09091 4.36 4.24064 4.3936 4.428L4.4 4.5C4.4 4.70045 4.2536 4.86818 4.0704 4.90255L4 4.90909C3.89424 4.90803 3.7931 4.86458 3.71831 4.78809C3.64352 4.7116 3.60104 4.60817 3.6 4.5C3.6 4.29955 3.7464 4.13182 3.9296 4.09745L4 4.09091ZM6 4.09091C6.196 4.09091 6.36 4.24064 6.3936 4.428L6.4 4.5C6.4 4.70045 6.2536 4.86818 6.0704 4.90255L6 4.90909C5.89424 4.90803 5.7931 4.86458 5.71831 4.78809C5.64352 4.7116 5.60104 4.60817 5.6 4.5C5.6 4.29955 5.7464 4.13182 5.9296 4.09745L6 4.09091ZM0.8 2.45455H7.2V2.18455C7.2 1.88182 6.96 1.63636 6.664 1.63636H1.336C1.04 1.63636 0.8 1.88182 0.8 2.18455V2.45455Z" fill="white"/>
</svg>
