<svg width="111" height="111" viewBox="0 0 111 111" fill="none" xmlns="http://www.w3.org/2000/svg">
<path d="M74.2252 60.8502C93.4309 60.8502 109 56.0596 109 50.1502C109 44.2407 93.4309 39.4502 74.2252 39.4502C55.0195 39.4502 39.4502 44.2407 39.4502 50.1502C39.4502 56.0596 55.0195 60.8502 74.2252 60.8502Z" stroke="#DFDEDE" stroke-width="4" stroke-linecap="round" stroke-linejoin="round"/>
<path d="M109 74.2246C109 80.1364 93.4317 84.9246 74.2252 84.9246C55.0187 84.9246 39.4502 80.1364 39.4502 74.2246" stroke="#DFDEDE" stroke-width="4" stroke-linecap="round" stroke-linejoin="round"/>
<path d="M109 50.1504V97.2304C109 103.731 93.4317 109 74.2252 109C55.0187 109 39.4502 103.731 39.4502 97.2304V50.1504" stroke="#DFDEDE" stroke-width="4" stroke-linecap="round" stroke-linejoin="round"/>
<path d="M36.775 23.4C55.9807 23.4 71.55 18.6094 71.55 12.7C71.55 6.79055 55.9807 2 36.775 2C17.5693 2 2 6.79055 2 12.7C2 18.6094 17.5693 23.4 36.775 23.4Z" stroke="#DFDEDE" stroke-width="4" stroke-linecap="round" stroke-linejoin="round"/>
<path d="M23.4 50.1502C13.2778 48.9197 3.9795 45.7364 2 39.4502M23.4 76.9002C13.2778 75.6697 3.9795 72.4864 2 66.2002" stroke="#DFDEDE" stroke-width="4" stroke-linecap="round" stroke-linejoin="round"/>
<path d="M23.4 103.65C13.2778 102.42 3.9795 99.2311 2 92.9502V12.7002M71.55 23.4002V12.7002" stroke="#DFDEDE" stroke-width="4" stroke-linecap="round" stroke-linejoin="round"/>
</svg>
