<svg width="314" height="44" viewBox="0 0 314 44" fill="none" xmlns="http://www.w3.org/2000/svg">
<rect width="314" height="44" rx="22" fill="#212547"/>
<path d="M43.495 22.225H48.535V24.175H43.495V22.225ZM43.675 28H41.245V17.5H49.18V19.45H43.675V28ZM56.2401 28.18C54.7501 28.18 53.5851 27.765 52.7451 26.935C51.9051 26.105 51.4851 24.92 51.4851 23.38V17.5H53.9151V23.29C53.9151 24.29 54.1201 25.01 54.5301 25.45C54.9401 25.89 55.5151 26.11 56.2551 26.11C56.9951 26.11 57.5701 25.89 57.9801 25.45C58.3901 25.01 58.5951 24.29 58.5951 23.29V17.5H60.9951V23.38C60.9951 24.92 60.5751 26.105 59.7351 26.935C58.8951 27.765 57.7301 28.18 56.2401 28.18ZM66.1456 28V19.48H62.7856V17.5H71.9356V19.48H68.5756V28H66.1456ZM78.4823 28.18C76.9923 28.18 75.8273 27.765 74.9873 26.935C74.1473 26.105 73.7273 24.92 73.7273 23.38V17.5H76.1573V23.29C76.1573 24.29 76.3623 25.01 76.7723 25.45C77.1823 25.89 77.7573 26.11 78.4973 26.11C79.2373 26.11 79.8123 25.89 80.2223 25.45C80.6323 25.01 80.8373 24.29 80.8373 23.29V17.5H83.2373V23.38C83.2373 24.92 82.8173 26.105 81.9773 26.935C81.1373 27.765 79.9723 28.18 78.4823 28.18ZM86.3886 28V17.5H90.9336C91.8736 17.5 92.6836 17.655 93.3636 17.965C94.0436 18.265 94.5686 18.7 94.9386 19.27C95.3086 19.84 95.4936 20.52 95.4936 21.31C95.4936 22.09 95.3086 22.765 94.9386 23.335C94.5686 23.895 94.0436 24.325 93.3636 24.625C92.6836 24.925 91.8736 25.075 90.9336 25.075H87.7386L88.8186 24.01V28H86.3886ZM93.0636 28L90.4386 24.19H93.0336L95.6886 28H93.0636ZM88.8186 24.28L87.7386 23.14H90.7986C91.5486 23.14 92.1086 22.98 92.4786 22.66C92.8486 22.33 93.0336 21.88 93.0336 21.31C93.0336 20.73 92.8486 20.28 92.4786 19.96C92.1086 19.64 91.5486 19.48 90.7986 19.48H87.7386L88.8186 18.325V24.28ZM100.404 21.73H105.459V23.62H100.404V21.73ZM100.584 26.05H106.299V28H98.1688V17.5H106.104V19.45H100.584V26.05ZM108.224 24.715V22.84H112.469V24.715H108.224ZM115.225 28V17.5H119.77C120.71 17.5 121.52 17.655 122.2 17.965C122.88 18.265 123.405 18.7 123.775 19.27C124.145 19.84 124.33 20.52 124.33 21.31C124.33 22.09 124.145 22.765 123.775 23.335C123.405 23.905 122.88 24.345 122.2 24.655C121.52 24.955 120.71 25.105 119.77 25.105H116.575L117.655 24.01V28H115.225ZM117.655 24.28L116.575 23.125H119.635C120.385 23.125 120.945 22.965 121.315 22.645C121.685 22.325 121.87 21.88 121.87 21.31C121.87 20.73 121.685 20.28 121.315 19.96C120.945 19.64 120.385 19.48 119.635 19.48H116.575L117.655 18.325V24.28ZM126.815 28V17.5H131.36C132.3 17.5 133.11 17.655 133.79 17.965C134.47 18.265 134.995 18.7 135.365 19.27C135.735 19.84 135.92 20.52 135.92 21.31C135.92 22.09 135.735 22.765 135.365 23.335C134.995 23.895 134.47 24.325 133.79 24.625C133.11 24.925 132.3 25.075 131.36 25.075H128.165L129.245 24.01V28H126.815ZM133.49 28L130.865 24.19H133.46L136.115 28H133.49ZM129.245 24.28L128.165 23.14H131.225C131.975 23.14 132.535 22.98 132.905 22.66C133.275 22.33 133.46 21.88 133.46 21.31C133.46 20.73 133.275 20.28 132.905 19.96C132.535 19.64 131.975 19.48 131.225 19.48H128.165L129.245 18.325V24.28ZM143.696 28.18C142.866 28.18 142.096 28.045 141.386 27.775C140.686 27.505 140.076 27.125 139.556 26.635C139.046 26.145 138.646 25.57 138.356 24.91C138.076 24.25 137.936 23.53 137.936 22.75C137.936 21.97 138.076 21.25 138.356 20.59C138.646 19.93 139.051 19.355 139.571 18.865C140.091 18.375 140.701 17.995 141.401 17.725C142.101 17.455 142.861 17.32 143.681 17.32C144.511 17.32 145.271 17.455 145.961 17.725C146.661 17.995 147.266 18.375 147.776 18.865C148.296 19.355 148.701 19.93 148.991 20.59C149.281 21.24 149.426 21.96 149.426 22.75C149.426 23.53 149.281 24.255 148.991 24.925C148.701 25.585 148.296 26.16 147.776 26.65C147.266 27.13 146.661 27.505 145.961 27.775C145.271 28.045 144.516 28.18 143.696 28.18ZM143.681 26.11C144.151 26.11 144.581 26.03 144.971 25.87C145.371 25.71 145.721 25.48 146.021 25.18C146.321 24.88 146.551 24.525 146.711 24.115C146.881 23.705 146.966 23.25 146.966 22.75C146.966 22.25 146.881 21.795 146.711 21.385C146.551 20.975 146.321 20.62 146.021 20.32C145.731 20.02 145.386 19.79 144.986 19.63C144.586 19.47 144.151 19.39 143.681 19.39C143.211 19.39 142.776 19.47 142.376 19.63C141.986 19.79 141.641 20.02 141.341 20.32C141.041 20.62 140.806 20.975 140.636 21.385C140.476 21.795 140.396 22.25 140.396 22.75C140.396 23.24 140.476 23.695 140.636 24.115C140.806 24.525 141.036 24.88 141.326 25.18C141.626 25.48 141.976 25.71 142.376 25.87C142.776 26.03 143.211 26.11 143.681 26.11ZM157.102 28.18C156.272 28.18 155.502 28.045 154.792 27.775C154.092 27.505 153.482 27.125 152.962 26.635C152.452 26.145 152.052 25.57 151.762 24.91C151.482 24.25 151.342 23.53 151.342 22.75C151.342 21.97 151.482 21.25 151.762 20.59C152.052 19.93 152.457 19.355 152.977 18.865C153.497 18.375 154.107 17.995 154.807 17.725C155.507 17.455 156.267 17.32 157.087 17.32C157.917 17.32 158.677 17.455 159.367 17.725C160.067 17.995 160.672 18.375 161.182 18.865C161.702 19.355 162.107 19.93 162.397 20.59C162.687 21.24 162.832 21.96 162.832 22.75C162.832 23.53 162.687 24.255 162.397 24.925C162.107 25.585 161.702 26.16 161.182 26.65C160.672 27.13 160.067 27.505 159.367 27.775C158.677 28.045 157.922 28.18 157.102 28.18ZM157.087 26.11C157.557 26.11 157.987 26.03 158.377 25.87C158.777 25.71 159.127 25.48 159.427 25.18C159.727 24.88 159.957 24.525 160.117 24.115C160.287 23.705 160.372 23.25 160.372 22.75C160.372 22.25 160.287 21.795 160.117 21.385C159.957 20.975 159.727 20.62 159.427 20.32C159.137 20.02 158.792 19.79 158.392 19.63C157.992 19.47 157.557 19.39 157.087 19.39C156.617 19.39 156.182 19.47 155.782 19.63C155.392 19.79 155.047 20.02 154.747 20.32C154.447 20.62 154.212 20.975 154.042 21.385C153.882 21.795 153.802 22.25 153.802 22.75C153.802 23.24 153.882 23.695 154.042 24.115C154.212 24.525 154.442 24.88 154.732 25.18C155.032 25.48 155.382 25.71 155.782 25.87C156.182 26.03 156.617 26.11 157.087 26.11ZM167.658 22.225H172.698V24.175H167.658V22.225ZM167.838 28H165.408V17.5H173.343V19.45H167.838V28ZM183.346 28V23.71L183.901 25.18L179.281 17.5H181.861L185.401 23.395H183.916L187.471 17.5H189.856L185.236 25.18L185.776 23.71V28H183.346ZM196.269 28.18C195.439 28.18 194.669 28.045 193.959 27.775C193.259 27.505 192.649 27.125 192.129 26.635C191.619 26.145 191.219 25.57 190.929 24.91C190.649 24.25 190.509 23.53 190.509 22.75C190.509 21.97 190.649 21.25 190.929 20.59C191.219 19.93 191.624 19.355 192.144 18.865C192.664 18.375 193.274 17.995 193.974 17.725C194.674 17.455 195.434 17.32 196.254 17.32C197.084 17.32 197.844 17.455 198.534 17.725C199.234 17.995 199.839 18.375 200.349 18.865C200.869 19.355 201.274 19.93 201.564 20.59C201.854 21.24 201.999 21.96 201.999 22.75C201.999 23.53 201.854 24.255 201.564 24.925C201.274 25.585 200.869 26.16 200.349 26.65C199.839 27.13 199.234 27.505 198.534 27.775C197.844 28.045 197.089 28.18 196.269 28.18ZM196.254 26.11C196.724 26.11 197.154 26.03 197.544 25.87C197.944 25.71 198.294 25.48 198.594 25.18C198.894 24.88 199.124 24.525 199.284 24.115C199.454 23.705 199.539 23.25 199.539 22.75C199.539 22.25 199.454 21.795 199.284 21.385C199.124 20.975 198.894 20.62 198.594 20.32C198.304 20.02 197.959 19.79 197.559 19.63C197.159 19.47 196.724 19.39 196.254 19.39C195.784 19.39 195.349 19.47 194.949 19.63C194.559 19.79 194.214 20.02 193.914 20.32C193.614 20.62 193.379 20.975 193.209 21.385C193.049 21.795 192.969 22.25 192.969 22.75C192.969 23.24 193.049 23.695 193.209 24.115C193.379 24.525 193.609 24.88 193.899 25.18C194.199 25.48 194.549 25.71 194.949 25.87C195.349 26.03 195.784 26.11 196.254 26.11ZM209.24 28.18C207.75 28.18 206.585 27.765 205.745 26.935C204.905 26.105 204.485 24.92 204.485 23.38V17.5H206.915V23.29C206.915 24.29 207.12 25.01 207.53 25.45C207.94 25.89 208.515 26.11 209.255 26.11C209.995 26.11 210.57 25.89 210.98 25.45C211.39 25.01 211.595 24.29 211.595 23.29V17.5H213.995V23.38C213.995 24.92 213.575 26.105 212.735 26.935C211.895 27.765 210.73 28.18 209.24 28.18ZM217.146 28V17.5H221.691C222.631 17.5 223.441 17.655 224.121 17.965C224.801 18.265 225.326 18.7 225.696 19.27C226.066 19.84 226.251 20.52 226.251 21.31C226.251 22.09 226.066 22.765 225.696 23.335C225.326 23.895 224.801 24.325 224.121 24.625C223.441 24.925 222.631 25.075 221.691 25.075H218.496L219.576 24.01V28H217.146ZM223.821 28L221.196 24.19H223.791L226.446 28H223.821ZM219.576 24.28L218.496 23.14H221.556C222.306 23.14 222.866 22.98 223.236 22.66C223.606 22.33 223.791 21.88 223.791 21.31C223.791 20.73 223.606 20.28 223.236 19.96C222.866 19.64 222.306 19.48 221.556 19.48H218.496L219.576 18.325V24.28ZM238.95 28.18C238.14 28.18 237.385 28.05 236.685 27.79C235.995 27.52 235.395 27.14 234.885 26.65C234.375 26.16 233.975 25.585 233.685 24.925C233.405 24.265 233.265 23.54 233.265 22.75C233.265 21.96 233.405 21.235 233.685 20.575C233.975 19.915 234.375 19.34 234.885 18.85C235.405 18.36 236.01 17.985 236.7 17.725C237.39 17.455 238.145 17.32 238.965 17.32C239.875 17.32 240.695 17.48 241.425 17.8C242.165 18.11 242.785 18.57 243.285 19.18L241.725 20.62C241.365 20.21 240.965 19.905 240.525 19.705C240.085 19.495 239.605 19.39 239.085 19.39C238.595 19.39 238.145 19.47 237.735 19.63C237.325 19.79 236.97 20.02 236.67 20.32C236.37 20.62 236.135 20.975 235.965 21.385C235.805 21.795 235.725 22.25 235.725 22.75C235.725 23.25 235.805 23.705 235.965 24.115C236.135 24.525 236.37 24.88 236.67 25.18C236.97 25.48 237.325 25.71 237.735 25.87C238.145 26.03 238.595 26.11 239.085 26.11C239.605 26.11 240.085 26.01 240.525 25.81C240.965 25.6 241.365 25.285 241.725 24.865L243.285 26.305C242.785 26.915 242.165 27.38 241.425 27.7C240.695 28.02 239.87 28.18 238.95 28.18ZM244.105 28L248.785 17.5H251.185L255.88 28H253.33L249.49 18.73H250.45L246.595 28H244.105ZM246.445 25.75L247.09 23.905H252.49L253.15 25.75H246.445ZM257.72 28V17.5H262.265C263.205 17.5 264.015 17.655 264.695 17.965C265.375 18.265 265.9 18.7 266.27 19.27C266.64 19.84 266.825 20.52 266.825 21.31C266.825 22.09 266.64 22.765 266.27 23.335C265.9 23.895 265.375 24.325 264.695 24.625C264.015 24.925 263.205 25.075 262.265 25.075H259.07L260.15 24.01V28H257.72ZM264.395 28L261.77 24.19H264.365L267.02 28H264.395ZM260.15 24.28L259.07 23.14H262.13C262.88 23.14 263.44 22.98 263.81 22.66C264.18 22.33 264.365 21.88 264.365 21.31C264.365 20.73 264.18 20.28 263.81 19.96C263.44 19.64 262.88 19.48 262.13 19.48H259.07L260.15 18.325V24.28ZM271.735 21.73H276.79V23.62H271.735V21.73ZM271.915 26.05H277.63V28H269.5V17.5H277.435V19.45H271.915V26.05ZM282.548 21.73H287.603V23.62H282.548V21.73ZM282.728 26.05H288.443V28H280.313V17.5H288.248V19.45H282.728V26.05ZM291.127 28V17.5H295.672C296.612 17.5 297.422 17.655 298.102 17.965C298.782 18.265 299.307 18.7 299.677 19.27C300.047 19.84 300.232 20.52 300.232 21.31C300.232 22.09 300.047 22.765 299.677 23.335C299.307 23.895 298.782 24.325 298.102 24.625C297.422 24.925 296.612 25.075 295.672 25.075H292.477L293.557 24.01V28H291.127ZM297.802 28L295.177 24.19H297.772L300.427 28H297.802ZM293.557 24.28L292.477 23.14H295.537C296.287 23.14 296.847 22.98 297.217 22.66C297.587 22.33 297.772 21.88 297.772 21.31C297.772 20.73 297.587 20.28 297.217 19.96C296.847 19.64 296.287 19.48 295.537 19.48H292.477L293.557 18.325V24.28Z" fill="white"/>
<circle cx="20.5" cy="21.5" r="14.5" fill="#2995E2"/>
</svg>
