<svg width="391" height="115" viewBox="0 0 391 115" fill="none" xmlns="http://www.w3.org/2000/svg">
<rect width="101.008" height="32.8194" fill="#1A5AD1"/>
<rect y="39.7285" width="101.008" height="32.8194" fill="#F759BC"/>
<rect y="79.7051" width="101.008" height="32.8194" fill="#2995E2"/>
<path d="M115.371 21.1309C115.832 18.4654 116.819 16.0947 118.331 14.0187C119.843 11.917 121.74 10.2896 124.021 9.13624C126.302 7.95727 128.801 7.36779 131.518 7.36779C134.927 7.36779 137.592 8.18794 139.514 9.82824C141.462 11.4685 142.462 13.7111 142.513 16.556H134.401C134.119 15.8384 133.632 15.2873 132.94 14.9029C132.248 14.5185 131.377 14.3262 130.326 14.3262C128.455 14.3262 126.853 14.9413 125.52 16.1716C124.213 17.4018 123.38 19.0549 123.022 21.1309C122.893 21.8998 122.829 22.5405 122.829 23.0531C122.829 24.7703 123.316 26.0774 124.29 26.9745C125.264 27.8459 126.699 28.2816 128.596 28.2816C131.236 28.2816 133.337 27.0898 134.901 24.7062H127.327L128.288 19.2856H142.359L141.052 26.59C139.719 28.871 137.81 30.8317 135.324 32.472C132.838 34.1123 129.967 34.9325 126.712 34.9325C124.303 34.9325 122.227 34.4839 120.484 33.5869C118.741 32.6642 117.409 31.3828 116.486 29.7425C115.563 28.1022 115.102 26.2056 115.102 24.0527C115.102 23.0275 115.192 22.0536 115.371 21.1309ZM154.271 13.5958L153.502 18.0938H162.152L161.114 23.822H152.464L151.579 28.7429H161.383L160.345 34.7402H142.968L147.773 7.6369H165.112L164.074 13.5958H154.271ZM189.249 7.6369L188.173 13.6342H180.984L177.255 34.7402H169.681L173.41 13.6342H166.26L167.336 7.6369H189.249Z" fill="white"/>
<path d="M125.098 74.7379C121.971 74.7379 119.446 74.0971 117.524 72.8156C115.627 71.5085 114.679 69.6119 114.679 67.1259C114.679 66.9208 114.705 66.562 114.756 66.0494H122.714C122.637 66.9208 122.817 67.6 123.252 68.087C123.688 68.5739 124.354 68.8174 125.251 68.8174C125.995 68.8174 126.584 68.6508 127.02 68.3176C127.481 67.9845 127.712 67.5103 127.712 66.8952C127.712 66.1776 127.379 65.5881 126.712 65.1267C126.071 64.6654 125.021 64.1272 123.56 63.5121C122.099 62.897 120.894 62.3203 119.946 61.7821C118.998 61.2182 118.178 60.4622 117.486 59.5139C116.794 58.5399 116.448 57.3353 116.448 55.9001C116.448 54.0291 116.909 52.4273 117.832 51.0945C118.754 49.7362 120.036 48.711 121.676 48.019C123.342 47.3013 125.239 46.9425 127.366 46.9425C129.288 46.9425 130.992 47.2501 132.479 47.8652C133.965 48.4547 135.119 49.3133 135.939 50.441C136.785 51.5687 137.208 52.9014 137.208 54.4392C137.208 54.8493 137.195 55.1568 137.169 55.3619H129.057C129.083 55.2337 129.096 55.0543 129.096 54.8236C129.096 54.2085 128.904 53.7344 128.519 53.4012C128.135 53.0424 127.609 52.863 126.943 52.863C126.251 52.863 125.687 53.0424 125.251 53.4012C124.841 53.7344 124.636 54.2085 124.636 54.8236C124.636 55.49 124.957 56.0667 125.597 56.5536C126.264 57.015 127.289 57.566 128.673 58.2068C130.159 58.8987 131.377 59.5523 132.325 60.1674C133.299 60.7569 134.132 61.5514 134.824 62.551C135.516 63.5505 135.862 64.7807 135.862 66.2416C135.862 67.8563 135.426 69.3172 134.555 70.6243C133.683 71.9058 132.44 72.9182 130.826 73.6614C129.211 74.379 127.302 74.7379 125.098 74.7379ZM163.382 47.3654L162.305 53.3627H155.116L151.387 74.4688H143.814L147.543 53.3627H140.392L141.469 47.3654H163.382ZM179.318 70.0476H169.707L167.477 74.4688H159.557L174.205 47.3654H182.893L187.968 74.4688H180.01L179.318 70.0476ZM178.434 64.3194L177.088 55.5156L172.628 64.3194H178.434ZM207.07 47.3654C209.915 47.3654 212.081 48.0062 213.567 49.2876C215.054 50.5435 215.797 52.2222 215.797 54.3239C215.797 54.9646 215.746 55.5413 215.643 56.0539C215.336 57.8992 214.554 59.5267 213.298 60.9363C212.042 62.3203 210.376 63.307 208.3 63.8965L212.529 74.4688H204.148L200.535 64.4732H199.727L197.959 74.4688H190.385L195.191 47.3654H207.07ZM200.65 59.3216H204.379C206.378 59.3216 207.557 58.3733 207.916 56.4767C207.967 56.1692 207.993 55.9513 207.993 55.8232C207.993 55.1312 207.762 54.593 207.301 54.2085C206.865 53.8241 206.212 53.6319 205.34 53.6319H201.611L200.65 59.3216ZM241.022 47.3654L239.945 53.3627H232.756L229.027 74.4688H221.453L225.183 53.3627H218.032L219.108 47.3654H241.022ZM250.307 53.3243L249.538 57.8223H258.188L257.15 63.5505H248.5L247.615 68.4714H257.419L256.381 74.4688H239.004L243.809 47.3654H261.148L260.11 53.3243H250.307ZM275.597 47.3654C278.083 47.3654 280.236 47.8139 282.056 48.711C283.876 49.5824 285.26 50.8254 286.208 52.4401C287.156 54.0547 287.63 55.9385 287.63 58.0914C287.63 59.0653 287.541 60.0008 287.361 60.8979C286.9 63.5121 285.9 65.8444 284.363 67.8948C282.851 69.9451 280.915 71.5598 278.558 72.7388C276.225 73.8921 273.637 74.4688 270.792 74.4688H260.066L264.871 47.3654H275.597ZM271.407 67.8563C273.611 67.8563 275.444 67.254 276.904 66.0494C278.365 64.8192 279.301 63.102 279.711 60.8979C279.813 60.3853 279.865 59.8342 279.865 59.2447C279.865 57.5276 279.339 56.2076 278.288 55.285C277.238 54.3623 275.764 53.901 273.867 53.901H271.292L268.793 67.8563H271.407Z" fill="white"/>
<path d="M139.091 87.341L138.015 93.3383H130.826L127.097 114.444H119.523L123.252 93.3383H116.102L117.178 87.341H139.091ZM150.183 114.713C147.902 114.713 145.89 114.239 144.147 113.291C142.405 112.343 141.059 111.01 140.111 109.293C139.162 107.576 138.688 105.602 138.688 103.372C138.688 100.169 139.355 97.3237 140.687 94.8377C142.046 92.326 143.93 90.3781 146.339 88.9941C148.774 87.6101 151.554 86.9181 154.681 86.9181C157.013 86.9181 159.051 87.3923 160.794 88.3406C162.562 89.2632 163.921 90.5832 164.869 92.3003C165.817 93.9919 166.291 95.9526 166.291 98.1823C166.291 101.36 165.612 104.205 164.254 106.717C162.895 109.229 160.999 111.189 158.564 112.599C156.129 114.009 153.336 114.713 150.183 114.713ZM151.336 107.717C152.849 107.717 154.169 107.319 155.296 106.525C156.45 105.73 157.321 104.679 157.91 103.372C158.526 102.04 158.833 100.604 158.833 99.0666C158.833 97.4263 158.385 96.1576 157.488 95.2606C156.616 94.3379 155.36 93.8766 153.72 93.8766C152.208 93.8766 150.875 94.2738 149.722 95.0683C148.568 95.8372 147.684 96.8752 147.069 98.1823C146.454 99.4894 146.146 100.925 146.146 102.488C146.146 104.103 146.595 105.384 147.492 106.333C148.389 107.255 149.671 107.717 151.336 107.717ZM182.865 87.341C185.351 87.341 187.504 87.7895 189.324 88.6866C191.144 89.558 192.528 90.801 193.476 92.4157C194.424 94.0303 194.898 95.9141 194.898 98.067C194.898 99.0409 194.809 99.9764 194.629 100.873C194.168 103.488 193.168 105.82 191.63 107.87C190.118 109.921 188.183 111.535 185.825 112.714C183.493 113.868 180.904 114.444 178.06 114.444H167.334L172.139 87.341H182.865ZM178.675 107.832C180.879 107.832 182.711 107.23 184.172 106.025C185.633 104.795 186.569 103.078 186.979 100.873C187.081 100.361 187.132 99.8098 187.132 99.2203C187.132 97.5032 186.607 96.1832 185.556 95.2606C184.505 94.3379 183.032 93.8766 181.135 93.8766H178.559L176.06 107.832H178.675ZM213.557 110.023H203.946L201.716 114.444H193.797L208.444 87.341H217.133L222.207 114.444H214.249L213.557 110.023ZM212.673 104.295L211.328 95.4912L206.868 104.295H212.673ZM254.073 87.341L241.271 105.833L239.733 114.444H232.198L233.698 105.833L227.431 87.341H236.043L238.965 97.8363L245.577 87.341H254.073ZM266.69 85.957L262.615 104.295H256.156L258.501 85.957H266.69ZM257.54 114.752C256.361 114.752 255.425 114.457 254.733 113.868C254.067 113.278 253.734 112.509 253.734 111.561C253.734 110.741 253.952 109.985 254.387 109.293C254.849 108.575 255.477 108.011 256.271 107.601C257.066 107.166 257.95 106.948 258.924 106.948C260.077 106.948 260.987 107.255 261.653 107.87C262.345 108.46 262.691 109.229 262.691 110.177C262.691 111.458 262.192 112.548 261.192 113.445C260.218 114.316 259.001 114.752 257.54 114.752Z" fill="white"/>
<rect x="214.688" width="176.312" height="32.8194" fill="#1A5AD1"/>
<rect x="321.851" y="39.7285" width="69.1491" height="32.8194" fill="#F759BC"/>
<rect x="299.042" y="79.7051" width="91.9574" height="32.8194" fill="#2995E2"/>
</svg>
