<svg width="67" height="60" viewBox="0 0 67 60" fill="none" xmlns="http://www.w3.org/2000/svg">
<circle cx="42" cy="35" r="25" fill="#F759BC" fill-opacity="0.23"/>
<path d="M22.2657 44.75H19.1112C11.045 44.75 7.013 44.75 4.5065 42.1962C2 39.6425 2 35.5318 2 27.3125C2 19.0932 2 14.9825 4.5065 12.4288C7.013 9.875 11.045 9.875 19.1112 9.875H27.668C35.7343 9.875 39.7685 9.875 42.275 12.4288C44.2032 14.393 44.6465 17.2797 44.75 22.25" stroke="black" stroke-width="3.375" stroke-linecap="round" stroke-linejoin="round"/>
<path d="M39.9125 39.9125L36.875 37.8875V32.825M33.5 9.875L33.275 9.1775C32.1635 5.7125 31.6055 3.98 30.2803 2.99C28.9528 2 27.1933 2 23.672 2H23.078C19.5567 2 17.795 2 16.4697 2.99C15.1422 3.98 14.5865 5.7125 13.4727 9.1775L13.25 9.875M26.75 36.875C26.75 38.2046 27.0119 39.5213 27.5207 40.7497C28.0295 41.9781 28.7754 43.0943 29.7155 44.0345C30.6557 44.9746 31.7719 45.7205 33.0003 46.2293C34.2288 46.7381 35.5454 47 36.875 47C38.2046 47 39.5213 46.7381 40.7497 46.2293C41.9781 45.7205 43.0943 44.9746 44.0345 44.0345C44.9746 43.0943 45.7205 41.9781 46.2293 40.7497C46.7381 39.5213 47 38.2046 47 36.875C47 34.1897 45.9333 31.6144 44.0345 29.7155C42.1356 27.8167 39.5603 26.75 36.875 26.75C34.1897 26.75 31.6144 27.8167 29.7155 29.7155C27.8167 31.6144 26.75 34.1897 26.75 36.875Z" stroke="black" stroke-width="3.375" stroke-linecap="round" stroke-linejoin="round"/>
</svg>
