<svg width="28" height="28" viewBox="0 0 28 28" fill="none" xmlns="http://www.w3.org/2000/svg">
<path d="M3.1528 11.2C2.91761 12.1147 2.79907 13.0555 2.8 14C2.8 14.966 2.9232 15.904 3.1528 16.8H7.14C6.95286 14.938 6.95286 13.062 7.14 11.2H3.1528ZM4.298 8.4H7.5824C7.9548 6.6962 8.4924 5.1702 9.1518 3.9004C7.1195 4.87995 5.42844 6.4476 4.298 8.4ZM24.8472 11.2H20.86C21.0471 13.062 21.0471 14.938 20.86 16.8H24.8472C25.3184 14.9631 25.3184 13.0369 24.8472 11.2ZM23.702 8.4C22.5716 6.4476 20.8805 4.87995 18.8482 3.9004C19.509 5.1702 20.0452 6.6962 20.4176 8.4H23.702ZM9.9568 11.2C9.8526 12.1297 9.80025 13.0645 9.8 14C9.8 14.959 9.8532 15.897 9.9568 16.8H18.0432C18.2536 14.9393 18.2536 13.0607 18.0432 11.2H9.9568ZM10.458 8.4H17.542C17.2868 7.34775 16.9193 6.32595 16.4458 5.3522C15.5666 3.5952 14.6258 2.8 14 2.8C13.3742 2.8 12.4334 3.5952 11.5542 5.3522C11.1132 6.237 10.7422 7.266 10.458 8.4ZM4.298 19.6C5.42844 21.5524 7.1195 23.1201 9.1518 24.0996C8.491 22.8298 7.9548 21.3038 7.5824 19.6H4.298ZM23.702 19.6H20.4176C20.0452 21.3038 19.5076 22.8298 18.8482 24.0996C20.8805 23.1201 22.5716 21.5524 23.702 19.6ZM10.458 19.6C10.7422 20.734 11.1132 21.763 11.5542 22.6478C12.4334 24.4048 13.3742 25.2 14 25.2C14.6258 25.2 15.5666 24.4048 16.4458 22.6478C16.8868 21.763 17.2578 20.734 17.542 19.6H10.458ZM14 28C6.2678 28 0 21.7322 0 14C0 6.2678 6.2678 0 14 0C21.7322 0 28 6.2678 28 14C28 21.7322 21.7322 28 14 28Z" fill="#2995E2"/>
</svg>
