<svg width="65" height="52" viewBox="0 0 65 52" fill="none" xmlns="http://www.w3.org/2000/svg">
<circle cx="40" cy="27" r="25" fill="#F759BC" fill-opacity="0.23"/>
<path d="M18.0347 27.2505L32.4032 18.0347L18.0347 8.81898V27.2505ZM15.4583 41.2222V36.0694H4.16344C2.97659 36.0694 1.9864 35.6727 1.19287 34.8792C0.39934 34.0856 0.00171759 33.0946 0 31.906V4.16344C0 2.97659 0.397623 1.9864 1.19287 1.19287C1.98811 0.39934 2.97745 0.00171759 4.16087 0H42.2141C43.3993 0 44.3886 0.397622 45.1821 1.19287C45.9757 1.98811 46.3733 2.97831 46.375 4.16344V31.9086C46.375 33.0937 45.9774 34.0839 45.1821 34.8792C44.3869 35.6744 43.3976 36.0712 42.2141 36.0694H30.9167V41.2222H15.4583ZM4.16344 33.4931H42.2141C42.6092 33.4931 42.9725 33.3282 43.3039 32.9984C43.6354 32.6686 43.8003 32.3045 43.7986 31.906V4.16344C43.7986 3.76668 43.6337 3.40255 43.3039 3.07106C42.9742 2.73956 42.6109 2.57467 42.2141 2.57639H4.16087C3.76582 2.57639 3.40255 2.74128 3.07106 3.07106C2.73956 3.40083 2.57467 3.76496 2.57639 4.16344V31.9086C2.57639 32.3036 2.74128 32.6669 3.07106 32.9984C3.40083 33.3299 3.7641 33.4948 4.16087 33.4931" fill="black"/>
</svg>
