<svg width="235" height="82" viewBox="0 0 235 82" fill="none" xmlns="http://www.w3.org/2000/svg">
<g clip-path="url(#clip0_821_785)">
<rect width="235" height="82" rx="10" fill="white"/>
<circle cx="220.5" cy="67.5" r="36.5" fill="#6DB7EC"/>
<circle cx="220.5" cy="67.5" r="30.5" fill="#2995E2"/>
<circle cx="220" cy="68" r="22" fill="#0A6CB3"/>
<path d="M31.206 35.364V37.83H27.858V48H24.78V37.83H21.432V35.364H31.206ZM35.8288 39.63C36.1888 39.078 36.6388 38.646 37.1788 38.334C37.7188 38.01 38.3188 37.848 38.9788 37.848V41.106H38.1328C37.3648 41.106 36.7888 41.274 36.4048 41.61C36.0208 41.934 35.8288 42.51 35.8288 43.338V48H32.7508V37.956H35.8288V39.63ZM39.838 42.96C39.838 41.928 40.03 41.022 40.414 40.242C40.81 39.462 41.344 38.862 42.016 38.442C42.688 38.022 43.438 37.812 44.266 37.812C44.974 37.812 45.592 37.956 46.12 38.244C46.66 38.532 47.074 38.91 47.362 39.378V37.956H50.44V48H47.362V46.578C47.062 47.046 46.642 47.424 46.102 47.712C45.574 48 44.956 48.144 44.248 48.144C43.432 48.144 42.688 47.934 42.016 47.514C41.344 47.082 40.81 46.476 40.414 45.696C40.03 44.904 39.838 43.992 39.838 42.96ZM47.362 42.978C47.362 42.21 47.146 41.604 46.714 41.16C46.294 40.716 45.778 40.494 45.166 40.494C44.554 40.494 44.032 40.716 43.6 41.16C43.18 41.592 42.97 42.192 42.97 42.96C42.97 43.728 43.18 44.34 43.6 44.796C44.032 45.24 44.554 45.462 45.166 45.462C45.778 45.462 46.294 45.24 46.714 44.796C47.146 44.352 47.362 43.746 47.362 42.978ZM54.2148 36.912C53.6748 36.912 53.2308 36.756 52.8828 36.444C52.5468 36.12 52.3788 35.724 52.3788 35.256C52.3788 34.776 52.5468 34.38 52.8828 34.068C53.2308 33.744 53.6748 33.582 54.2148 33.582C54.7428 33.582 55.1748 33.744 55.5108 34.068C55.8588 34.38 56.0328 34.776 56.0328 35.256C56.0328 35.724 55.8588 36.12 55.5108 36.444C55.1748 36.756 54.7428 36.912 54.2148 36.912ZM55.7448 37.956V48H52.6668V37.956H55.7448ZM64.0954 37.848C65.2714 37.848 66.2074 38.232 66.9034 39C67.6114 39.756 67.9654 40.8 67.9654 42.132V48H64.9054V42.546C64.9054 41.874 64.7314 41.352 64.3834 40.98C64.0354 40.608 63.5674 40.422 62.9794 40.422C62.3914 40.422 61.9234 40.608 61.5754 40.98C61.2274 41.352 61.0534 41.874 61.0534 42.546V48H57.9754V37.956H61.0534V39.288C61.3654 38.844 61.7854 38.496 62.3134 38.244C62.8414 37.98 63.4354 37.848 64.0954 37.848ZM71.6523 36.912C71.1123 36.912 70.6683 36.756 70.3203 36.444C69.9843 36.12 69.8163 35.724 69.8163 35.256C69.8163 34.776 69.9843 34.38 70.3203 34.068C70.6683 33.744 71.1123 33.582 71.6523 33.582C72.1803 33.582 72.6123 33.744 72.9483 34.068C73.2963 34.38 73.4703 34.776 73.4703 35.256C73.4703 35.724 73.2963 36.12 72.9483 36.444C72.6123 36.756 72.1803 36.912 71.6523 36.912ZM73.1823 37.956V48H70.1043V37.956H73.1823ZM81.5329 37.848C82.7089 37.848 83.6449 38.232 84.3409 39C85.0489 39.756 85.4029 40.8 85.4029 42.132V48H82.3429V42.546C82.3429 41.874 82.1689 41.352 81.8209 40.98C81.4729 40.608 81.0049 40.422 80.4169 40.422C79.8289 40.422 79.3609 40.608 79.0129 40.98C78.6649 41.352 78.4909 41.874 78.4909 42.546V48H75.4129V37.956H78.4909V39.288C78.8029 38.844 79.2229 38.496 79.7509 38.244C80.2789 37.98 80.8729 37.848 81.5329 37.848ZM91.3578 37.812C92.0658 37.812 92.6838 37.956 93.2118 38.244C93.7518 38.532 94.1658 38.91 94.4538 39.378V37.956H97.5318V47.982C97.5318 48.906 97.3458 49.74 96.9738 50.484C96.6138 51.24 96.0558 51.84 95.2998 52.284C94.5558 52.728 93.6258 52.95 92.5098 52.95C91.0218 52.95 89.8158 52.596 88.8918 51.888C87.9678 51.192 87.4398 50.244 87.3078 49.044H90.3498C90.4458 49.428 90.6738 49.728 91.0338 49.944C91.3938 50.172 91.8378 50.286 92.3658 50.286C93.0018 50.286 93.5058 50.1 93.8778 49.728C94.2618 49.368 94.4538 48.786 94.4538 47.982V46.56C94.1538 47.028 93.7398 47.412 93.2118 47.712C92.6838 48 92.0658 48.144 91.3578 48.144C90.5298 48.144 89.7798 47.934 89.1078 47.514C88.4358 47.082 87.9018 46.476 87.5058 45.696C87.1218 44.904 86.9298 43.992 86.9298 42.96C86.9298 41.928 87.1218 41.022 87.5058 40.242C87.9018 39.462 88.4358 38.862 89.1078 38.442C89.7798 38.022 90.5298 37.812 91.3578 37.812ZM94.4538 42.978C94.4538 42.21 94.2378 41.604 93.8058 41.16C93.3858 40.716 92.8698 40.494 92.2578 40.494C91.6458 40.494 91.1238 40.716 90.6918 41.16C90.2718 41.592 90.0618 42.192 90.0618 42.96C90.0618 43.728 90.2718 44.34 90.6918 44.796C91.1238 45.24 91.6458 45.462 92.2578 45.462C92.8698 45.462 93.3858 45.24 93.8058 44.796C94.2378 44.352 94.4538 43.746 94.4538 42.978ZM113.239 48L112.069 46.866C110.905 47.754 109.513 48.198 107.893 48.198C106.921 48.198 106.075 48.042 105.355 47.73C104.635 47.406 104.077 46.956 103.681 46.38C103.297 45.792 103.105 45.108 103.105 44.328C103.105 43.536 103.315 42.822 103.735 42.186C104.167 41.538 104.809 41.01 105.661 40.602C105.349 40.218 105.127 39.852 104.995 39.504C104.863 39.144 104.797 38.754 104.797 38.334C104.797 37.734 104.953 37.188 105.265 36.696C105.577 36.204 106.027 35.82 106.615 35.544C107.215 35.256 107.923 35.112 108.739 35.112C109.567 35.112 110.269 35.262 110.845 35.562C111.421 35.862 111.853 36.264 112.141 36.768C112.429 37.272 112.561 37.824 112.537 38.424H109.639C109.651 38.1 109.567 37.854 109.387 37.686C109.219 37.506 108.991 37.416 108.703 37.416C108.415 37.416 108.175 37.5 107.983 37.668C107.791 37.836 107.695 38.052 107.695 38.316C107.695 38.568 107.773 38.832 107.929 39.108C108.097 39.384 108.355 39.702 108.703 40.062L111.781 43.068C111.805 43.008 111.835 42.936 111.871 42.852C111.919 42.768 111.967 42.672 112.015 42.564L112.681 41.43H115.759L114.895 42.996C114.571 43.704 114.199 44.376 113.779 45.012L116.821 48H113.239ZM108.037 45.714C108.841 45.714 109.555 45.486 110.179 45.03L107.371 42.312C106.507 42.756 106.075 43.356 106.075 44.112C106.075 44.568 106.249 44.952 106.597 45.264C106.957 45.564 107.437 45.714 108.037 45.714ZM128.193 48L125.565 43.23H124.827V48H121.749V35.364H126.915C127.911 35.364 128.757 35.538 129.453 35.886C130.161 36.234 130.689 36.714 131.037 37.326C131.385 37.926 131.559 38.598 131.559 39.342C131.559 40.182 131.319 40.932 130.839 41.592C130.371 42.252 129.675 42.72 128.751 42.996L131.667 48H128.193ZM124.827 41.052H126.735C127.299 41.052 127.719 40.914 127.995 40.638C128.283 40.362 128.427 39.972 128.427 39.468C128.427 38.988 128.283 38.61 127.995 38.334C127.719 38.058 127.299 37.92 126.735 37.92H124.827V41.052ZM142.959 42.816C142.959 43.104 142.941 43.404 142.905 43.716H135.939C135.987 44.34 136.185 44.82 136.533 45.156C136.893 45.48 137.331 45.642 137.847 45.642C138.615 45.642 139.149 45.318 139.449 44.67H142.725C142.557 45.33 142.251 45.924 141.807 46.452C141.375 46.98 140.829 47.394 140.169 47.694C139.509 47.994 138.771 48.144 137.955 48.144C136.971 48.144 136.095 47.934 135.327 47.514C134.559 47.094 133.959 46.494 133.527 45.714C133.095 44.934 132.879 44.022 132.879 42.978C132.879 41.934 133.089 41.022 133.509 40.242C133.941 39.462 134.541 38.862 135.309 38.442C136.077 38.022 136.959 37.812 137.955 37.812C138.927 37.812 139.791 38.016 140.547 38.424C141.303 38.832 141.891 39.414 142.311 40.17C142.743 40.926 142.959 41.808 142.959 42.816ZM139.809 42.006C139.809 41.478 139.629 41.058 139.269 40.746C138.909 40.434 138.459 40.278 137.919 40.278C137.403 40.278 136.965 40.428 136.605 40.728C136.257 41.028 136.041 41.454 135.957 42.006H139.809ZM143.971 42.96C143.971 41.928 144.163 41.022 144.547 40.242C144.943 39.462 145.477 38.862 146.149 38.442C146.821 38.022 147.571 37.812 148.399 37.812C149.107 37.812 149.725 37.956 150.253 38.244C150.793 38.532 151.207 38.91 151.495 39.378V37.956H154.573V48H151.495V46.578C151.195 47.046 150.775 47.424 150.235 47.712C149.707 48 149.089 48.144 148.381 48.144C147.565 48.144 146.821 47.934 146.149 47.514C145.477 47.082 144.943 46.476 144.547 45.696C144.163 44.904 143.971 43.992 143.971 42.96ZM151.495 42.978C151.495 42.21 151.279 41.604 150.847 41.16C150.427 40.716 149.911 40.494 149.299 40.494C148.687 40.494 148.165 40.716 147.733 41.16C147.313 41.592 147.103 42.192 147.103 42.96C147.103 43.728 147.313 44.34 147.733 44.796C148.165 45.24 148.687 45.462 149.299 45.462C149.911 45.462 150.427 45.24 150.847 44.796C151.279 44.352 151.495 43.746 151.495 42.978ZM159.878 34.68V48H156.8V34.68H159.878ZM169.848 40.404V42.96H161.928V40.404H169.848ZM175.628 34.68V48H172.55V34.68H175.628ZM179.406 36.912C178.866 36.912 178.422 36.756 178.074 36.444C177.738 36.12 177.57 35.724 177.57 35.256C177.57 34.776 177.738 34.38 178.074 34.068C178.422 33.744 178.866 33.582 179.406 33.582C179.934 33.582 180.366 33.744 180.702 34.068C181.05 34.38 181.224 34.776 181.224 35.256C181.224 35.724 181.05 36.12 180.702 36.444C180.366 36.756 179.934 36.912 179.406 36.912ZM180.936 37.956V48H177.858V37.956H180.936ZM188.207 40.512H186.551V48H183.473V40.512H182.357V37.956H183.473V37.668C183.473 36.432 183.827 35.496 184.535 34.86C185.243 34.212 186.281 33.888 187.649 33.888C187.877 33.888 188.045 33.894 188.153 33.906V36.516C187.565 36.48 187.151 36.564 186.911 36.768C186.671 36.972 186.551 37.338 186.551 37.866V37.956H188.207V40.512ZM199.121 42.816C199.121 43.104 199.103 43.404 199.067 43.716H192.101C192.149 44.34 192.347 44.82 192.695 45.156C193.055 45.48 193.493 45.642 194.009 45.642C194.777 45.642 195.311 45.318 195.611 44.67H198.887C198.719 45.33 198.413 45.924 197.969 46.452C197.537 46.98 196.991 47.394 196.331 47.694C195.671 47.994 194.933 48.144 194.117 48.144C193.133 48.144 192.257 47.934 191.489 47.514C190.721 47.094 190.121 46.494 189.689 45.714C189.257 44.934 189.041 44.022 189.041 42.978C189.041 41.934 189.251 41.022 189.671 40.242C190.103 39.462 190.703 38.862 191.471 38.442C192.239 38.022 193.121 37.812 194.117 37.812C195.089 37.812 195.953 38.016 196.709 38.424C197.465 38.832 198.053 39.414 198.473 40.17C198.905 40.926 199.121 41.808 199.121 42.816ZM195.971 42.006C195.971 41.478 195.791 41.058 195.431 40.746C195.071 40.434 194.621 40.278 194.081 40.278C193.565 40.278 193.127 40.428 192.767 40.728C192.419 41.028 192.203 41.454 192.119 42.006H195.971ZM31.746 58.432C31.746 59.164 31.578 59.836 31.242 60.448C30.906 61.048 30.39 61.534 29.694 61.906C28.998 62.278 28.134 62.464 27.102 62.464H25.194V67H22.116V54.364H27.102C28.11 54.364 28.962 54.538 29.658 54.886C30.354 55.234 30.876 55.714 31.224 56.326C31.572 56.938 31.746 57.64 31.746 58.432ZM26.868 60.016C27.456 60.016 27.894 59.878 28.182 59.602C28.47 59.326 28.614 58.936 28.614 58.432C28.614 57.928 28.47 57.538 28.182 57.262C27.894 56.986 27.456 56.848 26.868 56.848H25.194V60.016H26.868ZM36.4264 58.63C36.7864 58.078 37.2364 57.646 37.7764 57.334C38.3164 57.01 38.9164 56.848 39.5764 56.848V60.106H38.7304C37.9624 60.106 37.3864 60.274 37.0024 60.61C36.6184 60.934 36.4264 61.51 36.4264 62.338V67H33.3484V56.956H36.4264V58.63ZM45.6196 67.144C44.6356 67.144 43.7476 66.934 42.9556 66.514C42.1756 66.094 41.5576 65.494 41.1016 64.714C40.6576 63.934 40.4356 63.022 40.4356 61.978C40.4356 60.946 40.6636 60.04 41.1196 59.26C41.5756 58.468 42.1996 57.862 42.9916 57.442C43.7836 57.022 44.6716 56.812 45.6556 56.812C46.6396 56.812 47.5276 57.022 48.3196 57.442C49.1116 57.862 49.7356 58.468 50.1916 59.26C50.6476 60.04 50.8756 60.946 50.8756 61.978C50.8756 63.01 50.6416 63.922 50.1736 64.714C49.7176 65.494 49.0876 66.094 48.2836 66.514C47.4916 66.934 46.6036 67.144 45.6196 67.144ZM45.6196 64.48C46.2076 64.48 46.7056 64.264 47.1136 63.832C47.5336 63.4 47.7436 62.782 47.7436 61.978C47.7436 61.174 47.5396 60.556 47.1316 60.124C46.7356 59.692 46.2436 59.476 45.6556 59.476C45.0556 59.476 44.5576 59.692 44.1616 60.124C43.7656 60.544 43.5676 61.162 43.5676 61.978C43.5676 62.782 43.7596 63.4 44.1436 63.832C44.5396 64.264 45.0316 64.48 45.6196 64.48ZM54.0386 55.912C53.4986 55.912 53.0546 55.756 52.7066 55.444C52.3706 55.12 52.2026 54.724 52.2026 54.256C52.2026 53.776 52.3706 53.38 52.7066 53.068C53.0546 52.744 53.4986 52.582 54.0386 52.582C54.5666 52.582 54.9986 52.744 55.3346 53.068C55.6826 53.38 55.8566 53.776 55.8566 54.256C55.8566 54.724 55.6826 55.12 55.3346 55.444C54.9986 55.756 54.5666 55.912 54.0386 55.912ZM55.5866 68.296C55.5866 69.532 55.2746 70.42 54.6506 70.96C54.0266 71.512 53.1566 71.788 52.0406 71.788H50.8346V69.178H51.5726C51.9086 69.178 52.1486 69.112 52.2926 68.98C52.4366 68.848 52.5086 68.632 52.5086 68.332V56.956H55.5866V68.296ZM67.2676 61.816C67.2676 62.104 67.2496 62.404 67.2136 62.716H60.2476C60.2956 63.34 60.4936 63.82 60.8416 64.156C61.2016 64.48 61.6396 64.642 62.1556 64.642C62.9236 64.642 63.4576 64.318 63.7576 63.67H67.0336C66.8656 64.33 66.5596 64.924 66.1156 65.452C65.6836 65.98 65.1376 66.394 64.4776 66.694C63.8176 66.994 63.0796 67.144 62.2636 67.144C61.2796 67.144 60.4036 66.934 59.6356 66.514C58.8676 66.094 58.2676 65.494 57.8356 64.714C57.4036 63.934 57.1876 63.022 57.1876 61.978C57.1876 60.934 57.3976 60.022 57.8176 59.242C58.2496 58.462 58.8496 57.862 59.6176 57.442C60.3856 57.022 61.2676 56.812 62.2636 56.812C63.2356 56.812 64.0996 57.016 64.8556 57.424C65.6116 57.832 66.1996 58.414 66.6196 59.17C67.0516 59.926 67.2676 60.808 67.2676 61.816ZM64.1176 61.006C64.1176 60.478 63.9376 60.058 63.5776 59.746C63.2176 59.434 62.7676 59.278 62.2276 59.278C61.7116 59.278 61.2736 59.428 60.9136 59.728C60.5656 60.028 60.3496 60.454 60.2656 61.006H64.1176ZM68.2794 61.978C68.2794 60.934 68.4894 60.022 68.9094 59.242C69.3414 58.462 69.9354 57.862 70.6914 57.442C71.4594 57.022 72.3354 56.812 73.3194 56.812C74.5794 56.812 75.6294 57.142 76.4694 57.802C77.3214 58.462 77.8794 59.392 78.1434 60.592H74.8674C74.5914 59.824 74.0574 59.44 73.2654 59.44C72.7014 59.44 72.2514 59.662 71.9154 60.106C71.5794 60.538 71.4114 61.162 71.4114 61.978C71.4114 62.794 71.5794 63.424 71.9154 63.868C72.2514 64.3 72.7014 64.516 73.2654 64.516C74.0574 64.516 74.5914 64.132 74.8674 63.364H78.1434C77.8794 64.54 77.3214 65.464 76.4694 66.136C75.6174 66.808 74.5674 67.144 73.3194 67.144C72.3354 67.144 71.4594 66.934 70.6914 66.514C69.9354 66.094 69.3414 65.494 68.9094 64.714C68.4894 63.934 68.2794 63.022 68.2794 61.978ZM85.3878 64.39V67H83.8218C82.7058 67 81.8358 66.73 81.2118 66.19C80.5878 65.638 80.2758 64.744 80.2758 63.508V59.512H79.0518V56.956H80.2758V54.508H83.3538V56.956H85.3698V59.512H83.3538V63.544C83.3538 63.844 83.4258 64.06 83.5698 64.192C83.7138 64.324 83.9538 64.39 84.2898 64.39H85.3878Z" fill="#2C2B2B"/>
<path d="M27.936 18.06C27.72 17.644 27.42 17.332 27.036 17.124C26.652 16.908 26.208 16.8 25.704 16.8C25.152 16.8 24.66 16.924 24.228 17.172C23.796 17.42 23.456 17.772 23.208 18.228C22.968 18.684 22.848 19.212 22.848 19.812C22.848 20.412 22.968 20.944 23.208 21.408C23.456 21.864 23.796 22.216 24.228 22.464C24.66 22.712 25.152 22.836 25.704 22.836C26.448 22.836 27.052 22.628 27.516 22.212C27.98 21.796 28.264 21.232 28.368 20.52H25.236V19.428H29.832V20.496C29.744 21.144 29.512 21.74 29.136 22.284C28.768 22.828 28.284 23.264 27.684 23.592C27.092 23.912 26.432 24.072 25.704 24.072C24.92 24.072 24.204 23.892 23.556 23.532C22.908 23.164 22.392 22.656 22.008 22.008C21.632 21.36 21.444 20.628 21.444 19.812C21.444 18.996 21.632 18.264 22.008 17.616C22.392 16.968 22.908 16.464 23.556 16.104C24.212 15.736 24.928 15.552 25.704 15.552C26.592 15.552 27.38 15.772 28.068 16.212C28.764 16.644 29.268 17.26 29.58 18.06H27.936ZM37.2413 20.532C37.2413 20.78 37.2253 21.004 37.1933 21.204H32.1413C32.1813 21.732 32.3773 22.156 32.7293 22.476C33.0813 22.796 33.5133 22.956 34.0253 22.956C34.7613 22.956 35.2813 22.648 35.5853 22.032H37.0612C36.8613 22.64 36.4973 23.14 35.9693 23.532C35.4493 23.916 34.8013 24.108 34.0253 24.108C33.3933 24.108 32.8253 23.968 32.3213 23.688C31.8253 23.4 31.4333 23 31.1453 22.488C30.8653 21.968 30.7253 21.368 30.7253 20.688C30.7253 20.008 30.8613 19.412 31.1333 18.9C31.4133 18.38 31.8013 17.98 32.2973 17.7C32.8013 17.42 33.3773 17.28 34.0253 17.28C34.6493 17.28 35.2053 17.416 35.6933 17.688C36.1813 17.96 36.5613 18.344 36.8333 18.84C37.1053 19.328 37.2413 19.892 37.2413 20.532ZM35.8133 20.1C35.8053 19.596 35.6253 19.192 35.2733 18.888C34.9213 18.584 34.4853 18.432 33.9653 18.432C33.4933 18.432 33.0893 18.584 32.7533 18.888C32.4173 19.184 32.2173 19.588 32.1533 20.1H35.8133ZM40.1835 18.504V22.164C40.1835 22.412 40.2395 22.592 40.3515 22.704C40.4715 22.808 40.6715 22.86 40.9515 22.86H41.7915V24H40.7115C40.0955 24 39.6235 23.856 39.2955 23.568C38.9675 23.28 38.8035 22.812 38.8035 22.164V18.504H38.0235V17.388H38.8035V15.744H40.1835V17.388H41.7915V18.504H40.1835ZM45.7135 20.664C45.7135 20 45.8495 19.412 46.1215 18.9C46.4015 18.388 46.7775 17.992 47.2495 17.712C47.7295 17.424 48.2575 17.28 48.8335 17.28C49.3535 17.28 49.8055 17.384 50.1895 17.592C50.5815 17.792 50.8935 18.044 51.1255 18.348V17.388H52.5055V24H51.1255V23.016C50.8935 23.328 50.5775 23.588 50.1775 23.796C49.7775 24.004 49.3215 24.108 48.8095 24.108C48.2415 24.108 47.7215 23.964 47.2495 23.676C46.7775 23.38 46.4015 22.972 46.1215 22.452C45.8495 21.924 45.7135 21.328 45.7135 20.664ZM51.1255 20.688C51.1255 20.232 51.0295 19.836 50.8375 19.5C50.6535 19.164 50.4095 18.908 50.1055 18.732C49.8015 18.556 49.4735 18.468 49.1215 18.468C48.7695 18.468 48.4415 18.556 48.1375 18.732C47.8335 18.9 47.5855 19.152 47.3935 19.488C47.2095 19.816 47.1175 20.208 47.1175 20.664C47.1175 21.12 47.2095 21.52 47.3935 21.864C47.5855 22.208 47.8335 22.472 48.1375 22.656C48.4495 22.832 48.7775 22.92 49.1215 22.92C49.4735 22.92 49.8015 22.832 50.1055 22.656C50.4095 22.48 50.6535 22.224 50.8375 21.888C51.0295 21.544 51.1255 21.144 51.1255 20.688ZM53.8463 20.688C53.8463 20.008 53.9823 19.412 54.2543 18.9C54.5343 18.38 54.9183 17.98 55.4063 17.7C55.8943 17.42 56.4543 17.28 57.0863 17.28C57.8863 17.28 58.5463 17.472 59.0663 17.856C59.5943 18.232 59.9503 18.772 60.1343 19.476H58.6583C58.5383 19.148 58.3463 18.892 58.0823 18.708C57.8183 18.524 57.4863 18.432 57.0863 18.432C56.5263 18.432 56.0783 18.632 55.7423 19.032C55.4143 19.424 55.2503 19.976 55.2503 20.688C55.2503 21.4 55.4143 21.956 55.7423 22.356C56.0783 22.756 56.5263 22.956 57.0863 22.956C57.8783 22.956 58.4023 22.608 58.6583 21.912H60.1343C59.9423 22.584 59.5823 23.12 59.0543 23.52C58.5263 23.912 57.8703 24.108 57.0863 24.108C56.4543 24.108 55.8943 23.968 55.4063 23.688C54.9183 23.4 54.5343 23 54.2543 22.488C53.9823 21.968 53.8463 21.368 53.8463 20.688ZM61.0417 20.688C61.0417 20.008 61.1777 19.412 61.4497 18.9C61.7297 18.38 62.1137 17.98 62.6017 17.7C63.0897 17.42 63.6497 17.28 64.2817 17.28C65.0817 17.28 65.7417 17.472 66.2617 17.856C66.7897 18.232 67.1457 18.772 67.3297 19.476H65.8537C65.7337 19.148 65.5417 18.892 65.2777 18.708C65.0137 18.524 64.6817 18.432 64.2817 18.432C63.7217 18.432 63.2737 18.632 62.9377 19.032C62.6097 19.424 62.4457 19.976 62.4457 20.688C62.4457 21.4 62.6097 21.956 62.9377 22.356C63.2737 22.756 63.7217 22.956 64.2817 22.956C65.0737 22.956 65.5977 22.608 65.8537 21.912H67.3297C67.1377 22.584 66.7777 23.12 66.2497 23.52C65.7217 23.912 65.0657 24.108 64.2817 24.108C63.6497 24.108 63.0897 23.968 62.6017 23.688C62.1137 23.4 61.7297 23 61.4497 22.488C61.1777 21.968 61.0417 21.368 61.0417 20.688ZM74.753 20.532C74.753 20.78 74.737 21.004 74.705 21.204H69.653C69.693 21.732 69.889 22.156 70.241 22.476C70.593 22.796 71.025 22.956 71.537 22.956C72.273 22.956 72.793 22.648 73.097 22.032H74.573C74.373 22.64 74.009 23.14 73.481 23.532C72.961 23.916 72.313 24.108 71.537 24.108C70.905 24.108 70.337 23.968 69.833 23.688C69.337 23.4 68.945 23 68.657 22.488C68.377 21.968 68.237 21.368 68.237 20.688C68.237 20.008 68.373 19.412 68.645 18.9C68.925 18.38 69.313 17.98 69.809 17.7C70.313 17.42 70.889 17.28 71.537 17.28C72.161 17.28 72.717 17.416 73.205 17.688C73.693 17.96 74.073 18.344 74.345 18.84C74.617 19.328 74.753 19.892 74.753 20.532ZM73.325 20.1C73.317 19.596 73.137 19.192 72.785 18.888C72.433 18.584 71.997 18.432 71.477 18.432C71.005 18.432 70.601 18.584 70.265 18.888C69.929 19.184 69.729 19.588 69.665 20.1H73.325ZM78.4992 24.108C77.9792 24.108 77.5112 24.016 77.0952 23.832C76.6872 23.64 76.3632 23.384 76.1232 23.064C75.8832 22.736 75.7552 22.372 75.7392 21.972H77.1552C77.1792 22.252 77.3112 22.488 77.5512 22.68C77.7992 22.864 78.1072 22.956 78.4752 22.956C78.8592 22.956 79.1552 22.884 79.3632 22.74C79.5792 22.588 79.6872 22.396 79.6872 22.164C79.6872 21.916 79.5672 21.732 79.3272 21.612C79.0952 21.492 78.7232 21.36 78.2112 21.216C77.7152 21.08 77.3112 20.948 76.9992 20.82C76.6872 20.692 76.4152 20.496 76.1832 20.232C75.9592 19.968 75.8472 19.62 75.8472 19.188C75.8472 18.836 75.9512 18.516 76.1592 18.228C76.3672 17.932 76.6632 17.7 77.0472 17.532C77.4392 17.364 77.8872 17.28 78.3912 17.28C79.1432 17.28 79.7472 17.472 80.2032 17.856C80.6672 18.232 80.9152 18.748 80.9472 19.404H79.5792C79.5552 19.108 79.4352 18.872 79.2192 18.696C79.0032 18.52 78.7112 18.432 78.3432 18.432C77.9832 18.432 77.7072 18.5 77.5152 18.636C77.3232 18.772 77.2272 18.952 77.2272 19.176C77.2272 19.352 77.2912 19.5 77.4192 19.62C77.5472 19.74 77.7032 19.836 77.8872 19.908C78.0712 19.972 78.3432 20.056 78.7032 20.16C79.1832 20.288 79.5752 20.42 79.8792 20.556C80.1912 20.684 80.4592 20.876 80.6832 21.132C80.9072 21.388 81.0232 21.728 81.0312 22.152C81.0312 22.528 80.9272 22.864 80.7192 23.16C80.5112 23.456 80.2152 23.688 79.8312 23.856C79.4552 24.024 79.0112 24.108 78.4992 24.108ZM84.9094 24.108C84.3894 24.108 83.9214 24.016 83.5054 23.832C83.0974 23.64 82.7734 23.384 82.5334 23.064C82.2934 22.736 82.1654 22.372 82.1494 21.972H83.5654C83.5894 22.252 83.7214 22.488 83.9614 22.68C84.2094 22.864 84.5174 22.956 84.8854 22.956C85.2694 22.956 85.5654 22.884 85.7734 22.74C85.9894 22.588 86.0974 22.396 86.0974 22.164C86.0974 21.916 85.9774 21.732 85.7374 21.612C85.5054 21.492 85.1334 21.36 84.6214 21.216C84.1254 21.08 83.7214 20.948 83.4094 20.82C83.0974 20.692 82.8254 20.496 82.5934 20.232C82.3694 19.968 82.2574 19.62 82.2574 19.188C82.2574 18.836 82.3614 18.516 82.5694 18.228C82.7774 17.932 83.0734 17.7 83.4574 17.532C83.8494 17.364 84.2974 17.28 84.8014 17.28C85.5534 17.28 86.1574 17.472 86.6134 17.856C87.0774 18.232 87.3254 18.748 87.3574 19.404H85.9894C85.9654 19.108 85.8454 18.872 85.6294 18.696C85.4134 18.52 85.1214 18.432 84.7534 18.432C84.3934 18.432 84.1174 18.5 83.9254 18.636C83.7334 18.772 83.6374 18.952 83.6374 19.176C83.6374 19.352 83.7014 19.5 83.8294 19.62C83.9574 19.74 84.1134 19.836 84.2974 19.908C84.4814 19.972 84.7534 20.056 85.1134 20.16C85.5934 20.288 85.9854 20.42 86.2894 20.556C86.6014 20.684 86.8694 20.876 87.0934 21.132C87.3174 21.388 87.4334 21.728 87.4414 22.152C87.4414 22.528 87.3374 22.864 87.1294 23.16C86.9214 23.456 86.6254 23.688 86.2414 23.856C85.8654 24.024 85.4214 24.108 84.9094 24.108ZM93.6327 18.504V22.164C93.6327 22.412 93.6887 22.592 93.8007 22.704C93.9207 22.808 94.1207 22.86 94.4007 22.86H95.2407V24H94.1607C93.5447 24 93.0727 23.856 92.7447 23.568C92.4167 23.28 92.2527 22.812 92.2527 22.164V18.504H91.4727V17.388H92.2527V15.744H93.6327V17.388H95.2407V18.504H93.6327ZM99.3696 24.108C98.7456 24.108 98.1816 23.968 97.6776 23.688C97.1736 23.4 96.7776 23 96.4896 22.488C96.2016 21.968 96.0576 21.368 96.0576 20.688C96.0576 20.016 96.2056 19.42 96.5016 18.9C96.7976 18.38 97.2016 17.98 97.7136 17.7C98.2256 17.42 98.7976 17.28 99.4296 17.28C100.062 17.28 100.634 17.42 101.146 17.7C101.658 17.98 102.062 18.38 102.358 18.9C102.654 19.42 102.802 20.016 102.802 20.688C102.802 21.36 102.65 21.956 102.346 22.476C102.042 22.996 101.626 23.4 101.098 23.688C100.578 23.968 100.002 24.108 99.3696 24.108ZM99.3696 22.92C99.7216 22.92 100.05 22.836 100.354 22.668C100.666 22.5 100.918 22.248 101.11 21.912C101.302 21.576 101.398 21.168 101.398 20.688C101.398 20.208 101.306 19.804 101.122 19.476C100.938 19.14 100.694 18.888 100.39 18.72C100.086 18.552 99.7576 18.468 99.4056 18.468C99.0536 18.468 98.7256 18.552 98.4216 18.72C98.1256 18.888 97.8896 19.14 97.7136 19.476C97.5376 19.804 97.4496 20.208 97.4496 20.688C97.4496 21.4 97.6296 21.952 97.9896 22.344C98.3576 22.728 98.8176 22.92 99.3696 22.92Z" fill="#2C2B2B"/>
</g>
<defs>
<clipPath id="clip0_821_785">
<rect width="235" height="82" rx="10" fill="white"/>
</clipPath>
</defs>
</svg>
