<svg width="314" height="44" viewBox="0 0 314 44" fill="none" xmlns="http://www.w3.org/2000/svg">
<rect width="314" height="44" rx="22" fill="#212547"/>
<path d="M41.245 28V17.5H45.79C46.73 17.5 47.54 17.655 48.22 17.965C48.9 18.265 49.425 18.7 49.795 19.27C50.165 19.84 50.35 20.52 50.35 21.31C50.35 22.09 50.165 22.765 49.795 23.335C49.425 23.895 48.9 24.325 48.22 24.625C47.54 24.925 46.73 25.075 45.79 25.075H42.595L43.675 24.01V28H41.245ZM47.92 28L45.295 24.19H47.89L50.545 28H47.92ZM43.675 24.28L42.595 23.14H45.655C46.405 23.14 46.965 22.98 47.335 22.66C47.705 22.33 47.89 21.88 47.89 21.31C47.89 20.73 47.705 20.28 47.335 19.96C46.965 19.64 46.405 19.48 45.655 19.48H42.595L43.675 18.325V24.28ZM55.2603 21.73H60.3153V23.62H55.2603V21.73ZM55.4403 26.05H61.1553V28H53.0253V17.5H60.9603V19.45H55.4403V26.05ZM62.4587 28L67.1388 17.5H69.5388L74.2338 28H71.6838L67.8438 18.73H68.8038L64.9488 28H62.4587ZM64.7987 25.75L65.4438 23.905H70.8438L71.5038 25.75H64.7987ZM76.0731 28V17.5H78.5031V26.02H83.7681V28H76.0731ZM94.3239 28.18C93.4839 28.18 92.6789 28.07 91.9089 27.85C91.1389 27.62 90.5189 27.325 90.0489 26.965L90.8739 25.135C91.3239 25.455 91.8539 25.72 92.4639 25.93C93.0839 26.13 93.7089 26.23 94.3389 26.23C94.8189 26.23 95.2039 26.185 95.4939 26.095C95.7939 25.995 96.0139 25.86 96.1539 25.69C96.2939 25.52 96.3639 25.325 96.3639 25.105C96.3639 24.825 96.2539 24.605 96.0339 24.445C95.8139 24.275 95.5239 24.14 95.1639 24.04C94.8039 23.93 94.4039 23.83 93.9639 23.74C93.5339 23.64 93.0989 23.52 92.6589 23.38C92.2289 23.24 91.8339 23.06 91.4739 22.84C91.1139 22.62 90.8189 22.33 90.5889 21.97C90.3689 21.61 90.2589 21.15 90.2589 20.59C90.2589 19.99 90.4189 19.445 90.7389 18.955C91.0689 18.455 91.5589 18.06 92.2089 17.77C92.8689 17.47 93.6939 17.32 94.6839 17.32C95.3439 17.32 95.9939 17.4 96.6339 17.56C97.2739 17.71 97.8389 17.94 98.3289 18.25L97.5789 20.095C97.0889 19.815 96.5989 19.61 96.1089 19.48C95.6189 19.34 95.1389 19.27 94.6689 19.27C94.1989 19.27 93.8139 19.325 93.5139 19.435C93.2139 19.545 92.9989 19.69 92.8689 19.87C92.7389 20.04 92.6739 20.24 92.6739 20.47C92.6739 20.74 92.7839 20.96 93.0039 21.13C93.2239 21.29 93.5139 21.42 93.8739 21.52C94.2339 21.62 94.6289 21.72 95.0589 21.82C95.4989 21.92 95.9339 22.035 96.3639 22.165C96.8039 22.295 97.2039 22.47 97.5639 22.69C97.9239 22.91 98.2139 23.2 98.4339 23.56C98.6639 23.92 98.7789 24.375 98.7789 24.925C98.7789 25.515 98.6139 26.055 98.2839 26.545C97.9539 27.035 97.4589 27.43 96.7989 27.73C96.1489 28.03 95.3239 28.18 94.3239 28.18ZM103.218 28V19.48H99.8579V17.5H109.008V19.48H105.648V28H103.218ZM116.019 28.18C115.189 28.18 114.419 28.045 113.709 27.775C113.009 27.505 112.399 27.125 111.879 26.635C111.369 26.145 110.969 25.57 110.679 24.91C110.399 24.25 110.259 23.53 110.259 22.75C110.259 21.97 110.399 21.25 110.679 20.59C110.969 19.93 111.374 19.355 111.894 18.865C112.414 18.375 113.024 17.995 113.724 17.725C114.424 17.455 115.184 17.32 116.004 17.32C116.834 17.32 117.594 17.455 118.284 17.725C118.984 17.995 119.589 18.375 120.099 18.865C120.619 19.355 121.024 19.93 121.314 20.59C121.604 21.24 121.749 21.96 121.749 22.75C121.749 23.53 121.604 24.255 121.314 24.925C121.024 25.585 120.619 26.16 120.099 26.65C119.589 27.13 118.984 27.505 118.284 27.775C117.594 28.045 116.839 28.18 116.019 28.18ZM116.004 26.11C116.474 26.11 116.904 26.03 117.294 25.87C117.694 25.71 118.044 25.48 118.344 25.18C118.644 24.88 118.874 24.525 119.034 24.115C119.204 23.705 119.289 23.25 119.289 22.75C119.289 22.25 119.204 21.795 119.034 21.385C118.874 20.975 118.644 20.62 118.344 20.32C118.054 20.02 117.709 19.79 117.309 19.63C116.909 19.47 116.474 19.39 116.004 19.39C115.534 19.39 115.099 19.47 114.699 19.63C114.309 19.79 113.964 20.02 113.664 20.32C113.364 20.62 113.129 20.975 112.959 21.385C112.799 21.795 112.719 22.25 112.719 22.75C112.719 23.24 112.799 23.695 112.959 24.115C113.129 24.525 113.359 24.88 113.649 25.18C113.949 25.48 114.299 25.71 114.699 25.87C115.099 26.03 115.534 26.11 116.004 26.11ZM124.325 28V17.5H128.87C129.81 17.5 130.62 17.655 131.3 17.965C131.98 18.265 132.505 18.7 132.875 19.27C133.245 19.84 133.43 20.52 133.43 21.31C133.43 22.09 133.245 22.765 132.875 23.335C132.505 23.895 131.98 24.325 131.3 24.625C130.62 24.925 129.81 25.075 128.87 25.075H125.675L126.755 24.01V28H124.325ZM131 28L128.375 24.19H130.97L133.625 28H131ZM126.755 24.28L125.675 23.14H128.735C129.485 23.14 130.045 22.98 130.415 22.66C130.785 22.33 130.97 21.88 130.97 21.31C130.97 20.73 130.785 20.28 130.415 19.96C130.045 19.64 129.485 19.48 128.735 19.48H125.675L126.755 18.325V24.28ZM138.569 28V23.71L139.124 25.18L134.504 17.5H137.084L140.624 23.395H139.139L142.694 17.5H145.079L140.459 25.18L140.999 23.71V28H138.569ZM152.564 28.12C152.164 28.12 151.819 27.985 151.529 27.715C151.249 27.435 151.109 27.08 151.109 26.65C151.109 26.22 151.249 25.875 151.529 25.615C151.819 25.345 152.164 25.21 152.564 25.21C152.974 25.21 153.319 25.345 153.599 25.615C153.879 25.875 154.019 26.22 154.019 26.65C154.019 27.08 153.879 27.435 153.599 27.715C153.319 27.985 152.974 28.12 152.564 28.12ZM161.517 28V17.5H166.062C167.002 17.5 167.812 17.655 168.492 17.965C169.172 18.265 169.697 18.7 170.067 19.27C170.437 19.84 170.622 20.52 170.622 21.31C170.622 22.09 170.437 22.765 170.067 23.335C169.697 23.895 169.172 24.325 168.492 24.625C167.812 24.925 167.002 25.075 166.062 25.075H162.867L163.947 24.01V28H161.517ZM168.192 28L165.567 24.19H168.162L170.817 28H168.192ZM163.947 24.28L162.867 23.14H165.927C166.677 23.14 167.237 22.98 167.607 22.66C167.977 22.33 168.162 21.88 168.162 21.31C168.162 20.73 167.977 20.28 167.607 19.96C167.237 19.64 166.677 19.48 165.927 19.48H162.867L163.947 18.325V24.28ZM175.533 21.73H180.588V23.62H175.533V21.73ZM175.713 26.05H181.428V28H173.298V17.5H181.233V19.45H175.713V26.05ZM182.731 28L187.411 17.5H189.811L194.506 28H191.956L188.116 18.73H189.076L185.221 28H182.731ZM185.071 25.75L185.716 23.905H191.116L191.776 25.75H185.071ZM196.346 28V17.5H198.776V26.02H204.041V28H196.346ZM214.596 28.18C213.756 28.18 212.951 28.07 212.181 27.85C211.411 27.62 210.791 27.325 210.321 26.965L211.146 25.135C211.596 25.455 212.126 25.72 212.736 25.93C213.356 26.13 213.981 26.23 214.611 26.23C215.091 26.23 215.476 26.185 215.766 26.095C216.066 25.995 216.286 25.86 216.426 25.69C216.566 25.52 216.636 25.325 216.636 25.105C216.636 24.825 216.526 24.605 216.306 24.445C216.086 24.275 215.796 24.14 215.436 24.04C215.076 23.93 214.676 23.83 214.236 23.74C213.806 23.64 213.371 23.52 212.931 23.38C212.501 23.24 212.106 23.06 211.746 22.84C211.386 22.62 211.091 22.33 210.861 21.97C210.641 21.61 210.531 21.15 210.531 20.59C210.531 19.99 210.691 19.445 211.011 18.955C211.341 18.455 211.831 18.06 212.481 17.77C213.141 17.47 213.966 17.32 214.956 17.32C215.616 17.32 216.266 17.4 216.906 17.56C217.546 17.71 218.111 17.94 218.601 18.25L217.851 20.095C217.361 19.815 216.871 19.61 216.381 19.48C215.891 19.34 215.411 19.27 214.941 19.27C214.471 19.27 214.086 19.325 213.786 19.435C213.486 19.545 213.271 19.69 213.141 19.87C213.011 20.04 212.946 20.24 212.946 20.47C212.946 20.74 213.056 20.96 213.276 21.13C213.496 21.29 213.786 21.42 214.146 21.52C214.506 21.62 214.901 21.72 215.331 21.82C215.771 21.92 216.206 22.035 216.636 22.165C217.076 22.295 217.476 22.47 217.836 22.69C218.196 22.91 218.486 23.2 218.706 23.56C218.936 23.92 219.051 24.375 219.051 24.925C219.051 25.515 218.886 26.055 218.556 26.545C218.226 27.035 217.731 27.43 217.071 27.73C216.421 28.03 215.596 28.18 214.596 28.18ZM226.127 28.18C224.637 28.18 223.472 27.765 222.632 26.935C221.792 26.105 221.372 24.92 221.372 23.38V17.5H223.802V23.29C223.802 24.29 224.007 25.01 224.417 25.45C224.827 25.89 225.402 26.11 226.142 26.11C226.882 26.11 227.457 25.89 227.867 25.45C228.277 25.01 228.482 24.29 228.482 23.29V17.5H230.882V23.38C230.882 24.92 230.462 26.105 229.622 26.935C228.782 27.765 227.617 28.18 226.127 28.18ZM239.058 28.18C238.248 28.18 237.493 28.05 236.793 27.79C236.103 27.52 235.503 27.14 234.993 26.65C234.483 26.16 234.083 25.585 233.793 24.925C233.513 24.265 233.373 23.54 233.373 22.75C233.373 21.96 233.513 21.235 233.793 20.575C234.083 19.915 234.483 19.34 234.993 18.85C235.513 18.36 236.118 17.985 236.808 17.725C237.498 17.455 238.253 17.32 239.073 17.32C239.983 17.32 240.803 17.48 241.533 17.8C242.273 18.11 242.893 18.57 243.393 19.18L241.833 20.62C241.473 20.21 241.073 19.905 240.633 19.705C240.193 19.495 239.713 19.39 239.193 19.39C238.703 19.39 238.253 19.47 237.843 19.63C237.433 19.79 237.078 20.02 236.778 20.32C236.478 20.62 236.243 20.975 236.073 21.385C235.913 21.795 235.833 22.25 235.833 22.75C235.833 23.25 235.913 23.705 236.073 24.115C236.243 24.525 236.478 24.88 236.778 25.18C237.078 25.48 237.433 25.71 237.843 25.87C238.253 26.03 238.703 26.11 239.193 26.11C239.713 26.11 240.193 26.01 240.633 25.81C241.073 25.6 241.473 25.285 241.833 24.865L243.393 26.305C242.893 26.915 242.273 27.38 241.533 27.7C240.803 28.02 239.978 28.18 239.058 28.18ZM250.589 28.18C249.779 28.18 249.024 28.05 248.324 27.79C247.634 27.52 247.034 27.14 246.524 26.65C246.014 26.16 245.614 25.585 245.324 24.925C245.044 24.265 244.904 23.54 244.904 22.75C244.904 21.96 245.044 21.235 245.324 20.575C245.614 19.915 246.014 19.34 246.524 18.85C247.044 18.36 247.649 17.985 248.339 17.725C249.029 17.455 249.784 17.32 250.604 17.32C251.514 17.32 252.334 17.48 253.064 17.8C253.804 18.11 254.424 18.57 254.924 19.18L253.364 20.62C253.004 20.21 252.604 19.905 252.164 19.705C251.724 19.495 251.244 19.39 250.724 19.39C250.234 19.39 249.784 19.47 249.374 19.63C248.964 19.79 248.609 20.02 248.309 20.32C248.009 20.62 247.774 20.975 247.604 21.385C247.444 21.795 247.364 22.25 247.364 22.75C247.364 23.25 247.444 23.705 247.604 24.115C247.774 24.525 248.009 24.88 248.309 25.18C248.609 25.48 248.964 25.71 249.374 25.87C249.784 26.03 250.234 26.11 250.724 26.11C251.244 26.11 251.724 26.01 252.164 25.81C252.604 25.6 253.004 25.285 253.364 24.865L254.924 26.305C254.424 26.915 253.804 27.38 253.064 27.7C252.334 28.02 251.509 28.18 250.589 28.18ZM259.55 21.73H264.605V23.62H259.55V21.73ZM259.73 26.05H265.445V28H257.315V17.5H265.25V19.45H259.73V26.05ZM271.579 28.18C270.739 28.18 269.934 28.07 269.164 27.85C268.394 27.62 267.774 27.325 267.304 26.965L268.129 25.135C268.579 25.455 269.109 25.72 269.719 25.93C270.339 26.13 270.964 26.23 271.594 26.23C272.074 26.23 272.459 26.185 272.749 26.095C273.049 25.995 273.269 25.86 273.409 25.69C273.549 25.52 273.619 25.325 273.619 25.105C273.619 24.825 273.509 24.605 273.289 24.445C273.069 24.275 272.779 24.14 272.419 24.04C272.059 23.93 271.659 23.83 271.219 23.74C270.789 23.64 270.354 23.52 269.914 23.38C269.484 23.24 269.089 23.06 268.729 22.84C268.369 22.62 268.074 22.33 267.844 21.97C267.624 21.61 267.514 21.15 267.514 20.59C267.514 19.99 267.674 19.445 267.994 18.955C268.324 18.455 268.814 18.06 269.464 17.77C270.124 17.47 270.949 17.32 271.939 17.32C272.599 17.32 273.249 17.4 273.889 17.56C274.529 17.71 275.094 17.94 275.584 18.25L274.834 20.095C274.344 19.815 273.854 19.61 273.364 19.48C272.874 19.34 272.394 19.27 271.924 19.27C271.454 19.27 271.069 19.325 270.769 19.435C270.469 19.545 270.254 19.69 270.124 19.87C269.994 20.04 269.929 20.24 269.929 20.47C269.929 20.74 270.039 20.96 270.259 21.13C270.479 21.29 270.769 21.42 271.129 21.52C271.489 21.62 271.884 21.72 272.314 21.82C272.754 21.92 273.189 22.035 273.619 22.165C274.059 22.295 274.459 22.47 274.819 22.69C275.179 22.91 275.469 23.2 275.689 23.56C275.919 23.92 276.034 24.375 276.034 24.925C276.034 25.515 275.869 26.055 275.539 26.545C275.209 27.035 274.714 27.43 274.054 27.73C273.404 28.03 272.579 28.18 271.579 28.18ZM281.894 28.18C281.054 28.18 280.249 28.07 279.479 27.85C278.709 27.62 278.089 27.325 277.619 26.965L278.444 25.135C278.894 25.455 279.424 25.72 280.034 25.93C280.654 26.13 281.279 26.23 281.909 26.23C282.389 26.23 282.774 26.185 283.064 26.095C283.364 25.995 283.584 25.86 283.724 25.69C283.864 25.52 283.934 25.325 283.934 25.105C283.934 24.825 283.824 24.605 283.604 24.445C283.384 24.275 283.094 24.14 282.734 24.04C282.374 23.93 281.974 23.83 281.534 23.74C281.104 23.64 280.669 23.52 280.229 23.38C279.799 23.24 279.404 23.06 279.044 22.84C278.684 22.62 278.389 22.33 278.159 21.97C277.939 21.61 277.829 21.15 277.829 20.59C277.829 19.99 277.989 19.445 278.309 18.955C278.639 18.455 279.129 18.06 279.779 17.77C280.439 17.47 281.264 17.32 282.254 17.32C282.914 17.32 283.564 17.4 284.204 17.56C284.844 17.71 285.409 17.94 285.899 18.25L285.149 20.095C284.659 19.815 284.169 19.61 283.679 19.48C283.189 19.34 282.709 19.27 282.239 19.27C281.769 19.27 281.384 19.325 281.084 19.435C280.784 19.545 280.569 19.69 280.439 19.87C280.309 20.04 280.244 20.24 280.244 20.47C280.244 20.74 280.354 20.96 280.574 21.13C280.794 21.29 281.084 21.42 281.444 21.52C281.804 21.62 282.199 21.72 282.629 21.82C283.069 21.92 283.504 22.035 283.934 22.165C284.374 22.295 284.774 22.47 285.134 22.69C285.494 22.91 285.784 23.2 286.004 23.56C286.234 23.92 286.349 24.375 286.349 24.925C286.349 25.515 286.184 26.055 285.854 26.545C285.524 27.035 285.029 27.43 284.369 27.73C283.719 28.03 282.894 28.18 281.894 28.18Z" fill="white"/>
<circle cx="20.5" cy="21.5" r="14.5" fill="#2995E2"/>
</svg>
