<svg width="61" height="61" viewBox="0 0 61 61" fill="none" xmlns="http://www.w3.org/2000/svg">
<path d="M9.14985 54.8998C10.8343 54.8998 12.1999 53.5343 12.1999 51.8498C12.1999 50.1653 10.8343 48.7998 9.14985 48.7998C7.46538 48.7998 6.09985 50.1653 6.09985 51.8498C6.09985 53.5343 7.46538 54.8998 9.14985 54.8998Z" fill="#F0F0F0"/>
<path d="M6.09985 6.10059H12.1999V33.5506H6.09985V6.10059Z" fill="#F0F0F0"/>
<path d="M15.25 0H3.05C2.24109 0 1.46531 0.321338 0.893324 0.893324C0.321338 1.46531 0 2.24109 0 3.05V57.95C0 58.7589 0.321338 59.5347 0.893324 60.1067C1.46531 60.6787 2.24109 61 3.05 61H15.25C16.0589 61 16.8347 60.6787 17.4067 60.1067C17.9787 59.5347 18.3 58.7589 18.3 57.95V3.05C18.3 2.24109 17.9787 1.46531 17.4067 0.893324C16.8347 0.321338 16.0589 0 15.25 0ZM15.25 57.95H3.05V3.05H15.25V57.95Z" fill="#F0F0F0"/>
<path d="M30.5 54.8998C32.1844 54.8998 33.55 53.5343 33.55 51.8498C33.55 50.1653 32.1844 48.7998 30.5 48.7998C28.8155 48.7998 27.45 50.1653 27.45 51.8498C27.45 53.5343 28.8155 54.8998 30.5 54.8998Z" fill="#F0F0F0"/>
<path d="M27.45 6.10059H33.55V33.5506H27.45V6.10059Z" fill="#F0F0F0"/>
<path d="M36.5999 0H24.3999C23.5909 0 22.8152 0.321338 22.2432 0.893324C21.6712 1.46531 21.3499 2.24109 21.3499 3.05V57.95C21.3499 58.7589 21.6712 59.5347 22.2432 60.1067C22.8152 60.6787 23.5909 61 24.3999 61H36.5999C37.4088 61 38.1845 60.6787 38.7565 60.1067C39.3285 59.5347 39.6499 58.7589 39.6499 57.95V3.05C39.6499 2.24109 39.3285 1.46531 38.7565 0.893324C38.1845 0.321338 37.4088 0 36.5999 0ZM36.5999 57.95H24.3999V3.05H36.5999V57.95Z" fill="#F0F0F0"/>
<path d="M51.85 54.8998C53.5345 54.8998 54.9 53.5343 54.9 51.8498C54.9 50.1653 53.5345 48.7998 51.85 48.7998C50.1656 48.7998 48.8 50.1653 48.8 51.8498C48.8 53.5343 50.1656 54.8998 51.85 54.8998Z" fill="#F0F0F0"/>
<path d="M48.8 6.10059H54.9V33.5506H48.8V6.10059Z" fill="#F0F0F0"/>
<path d="M57.95 0H45.75C44.941 0 44.1653 0.321338 43.5933 0.893324C43.0213 1.46531 42.7 2.24109 42.7 3.05V57.95C42.7 58.7589 43.0213 59.5347 43.5933 60.1067C44.1653 60.6787 44.941 61 45.75 61H57.95C58.7589 61 59.5346 60.6787 60.1066 60.1067C60.6786 59.5347 61 58.7589 61 57.95V3.05C61 2.24109 60.6786 1.46531 60.1066 0.893324C59.5346 0.321338 58.7589 0 57.95 0ZM57.95 57.95H45.75V3.05H57.95V57.95Z" fill="#F0F0F0"/>
</svg>
