<svg width="174" height="42" viewBox="0 0 174 42" fill="none" xmlns="http://www.w3.org/2000/svg">
<path d="M13.6336 18.1042C14.8345 18.1042 15.9515 17.4886 16.5928 16.4733L26.1529 1.33763C26.4822 0.8162 27.0559 0.500019 27.6726 0.500019C28.8875 0.500019 29.7525 1.68024 29.3867 2.83878L26.0045 13.5504C25.2923 15.8062 26.9765 18.1042 29.3421 18.1042H35.2781C36.5494 18.1042 37.7208 17.4149 38.338 16.3035L40.633 12.1708C40.862 11.7584 41.2966 11.5027 41.7683 11.5027C42.5991 11.5027 43.2163 12.272 43.0361 13.083L41.4666 20.1458C41.3554 20.6459 41.3554 21.1642 41.4666 21.6643L43.036 28.7268C43.2163 29.538 42.599 30.3074 41.7681 30.3074C41.2965 30.3074 40.8619 30.0517 40.6328 29.6394L38.3359 25.5058C37.7185 24.3948 36.5474 23.7058 35.2765 23.7058H29.3404C26.9747 23.7058 25.2904 26.0042 26.0029 28.2601L29.3864 38.9714C29.7523 40.1298 28.8874 41.3101 27.6725 41.3101C27.0558 41.3101 26.4822 40.9939 26.1529 40.4725L16.5928 25.3368C15.9515 24.3215 14.8345 23.7058 13.6336 23.7058L3.30079 23.7058C2.55798 23.7058 1.84558 23.4107 1.32033 22.8855C0.795083 22.3602 0.5 21.6479 0.5 20.905C0.5 20.1622 0.795083 19.4498 1.32033 18.9246C1.84558 18.3993 2.55798 18.1042 3.30079 18.1042L13.6336 18.1042Z" stroke="white"/>
<line x1="174" y1="20.4067" x2="43.5" y2="20.4067" stroke="white"/>
</svg>
