<svg width="328" height="44" viewBox="0 0 328 44" fill="none" xmlns="http://www.w3.org/2000/svg">
<rect width="328" height="44" rx="22" fill="#2995E2"/>
<circle cx="20.5" cy="21.5" r="14.5" fill="#7CC2F4"/>
<path d="M49.315 27.18C48.485 27.18 47.72 27.05 47.02 26.79C46.33 26.52 45.725 26.14 45.205 25.65C44.695 25.16 44.295 24.585 44.005 23.925C43.725 23.265 43.585 22.54 43.585 21.75C43.585 20.96 43.725 20.235 44.005 19.575C44.295 18.915 44.7 18.34 45.22 17.85C45.74 17.36 46.35 16.985 47.05 16.725C47.75 16.455 48.52 16.32 49.36 16.32C50.29 16.32 51.125 16.475 51.865 16.785C52.615 17.095 53.245 17.545 53.755 18.135L52.195 19.575C51.815 19.175 51.4 18.88 50.95 18.69C50.5 18.49 50.01 18.39 49.48 18.39C48.97 18.39 48.505 18.47 48.085 18.63C47.665 18.79 47.3 19.02 46.99 19.32C46.69 19.62 46.455 19.975 46.285 20.385C46.125 20.795 46.045 21.25 46.045 21.75C46.045 22.24 46.125 22.69 46.285 23.1C46.455 23.51 46.69 23.87 46.99 24.18C47.3 24.48 47.66 24.71 48.07 24.87C48.49 25.03 48.95 25.11 49.45 25.11C49.93 25.11 50.395 25.035 50.845 24.885C51.305 24.725 51.75 24.46 52.18 24.09L53.56 25.845C52.99 26.275 52.325 26.605 51.565 26.835C50.815 27.065 50.065 27.18 49.315 27.18ZM51.34 25.53V21.585H53.56V25.845L51.34 25.53ZM60.4073 27.12C59.4873 27.12 58.6773 26.94 57.9773 26.58C57.2873 26.22 56.7523 25.73 56.3723 25.11C55.9923 24.48 55.8023 23.765 55.8023 22.965C55.8023 22.155 55.9873 21.44 56.3573 20.82C56.7373 20.19 57.2523 19.7 57.9023 19.35C58.5523 18.99 59.2873 18.81 60.1073 18.81C60.8973 18.81 61.6073 18.98 62.2373 19.32C62.8773 19.65 63.3823 20.13 63.7523 20.76C64.1223 21.38 64.3073 22.125 64.3073 22.995C64.3073 23.085 64.3023 23.19 64.2923 23.31C64.2823 23.42 64.2723 23.525 64.2623 23.625H57.7073V22.26H63.0323L62.1323 22.665C62.1323 22.245 62.0473 21.88 61.8773 21.57C61.7073 21.26 61.4723 21.02 61.1723 20.85C60.8723 20.67 60.5223 20.58 60.1223 20.58C59.7223 20.58 59.3673 20.67 59.0573 20.85C58.7573 21.02 58.5223 21.265 58.3523 21.585C58.1823 21.895 58.0973 22.265 58.0973 22.695V23.055C58.0973 23.495 58.1923 23.885 58.3823 24.225C58.5823 24.555 58.8573 24.81 59.2073 24.99C59.5673 25.16 59.9873 25.245 60.4673 25.245C60.8973 25.245 61.2723 25.18 61.5923 25.05C61.9223 24.92 62.2223 24.725 62.4923 24.465L63.7373 25.815C63.3673 26.235 62.9023 26.56 62.3423 26.79C61.7823 27.01 61.1373 27.12 60.4073 27.12ZM69.9152 27.12C68.9652 27.12 68.2252 26.88 67.6952 26.4C67.1652 25.91 66.9002 25.185 66.9002 24.225V17.145H69.2402V24.195C69.2402 24.535 69.3302 24.8 69.5102 24.99C69.6902 25.17 69.9352 25.26 70.2452 25.26C70.6152 25.26 70.9302 25.16 71.1902 24.96L71.8202 26.61C71.5802 26.78 71.2902 26.91 70.9502 27C70.6202 27.08 70.2752 27.12 69.9152 27.12ZM65.6552 20.91V19.11H71.2502V20.91H65.6552ZM79.9018 30.03C79.4818 30.03 79.0668 29.965 78.6568 29.835C78.2468 29.705 77.9118 29.525 77.6518 29.295L78.5068 27.63C78.6868 27.79 78.8918 27.915 79.1218 28.005C79.3618 28.095 79.5968 28.14 79.8268 28.14C80.1568 28.14 80.4168 28.06 80.6068 27.9C80.8068 27.75 80.9868 27.495 81.1468 27.135L81.5668 26.145L81.7468 25.89L84.6418 18.93H86.8918L83.2468 27.495C82.9868 28.145 82.6868 28.655 82.3468 29.025C82.0168 29.395 81.6468 29.655 81.2368 29.805C80.8368 29.955 80.3918 30.03 79.9018 30.03ZM81.2818 27.315L77.6818 18.93H80.0968L82.8868 25.68L81.2818 27.315ZM92.2169 27.12C91.3569 27.12 90.5919 26.94 89.9219 26.58C89.2619 26.22 88.7369 25.73 88.3469 25.11C87.9669 24.48 87.7769 23.765 87.7769 22.965C87.7769 22.155 87.9669 21.44 88.3469 20.82C88.7369 20.19 89.2619 19.7 89.9219 19.35C90.5919 18.99 91.3569 18.81 92.2169 18.81C93.0669 18.81 93.8269 18.99 94.4969 19.35C95.1669 19.7 95.6919 20.185 96.0719 20.805C96.4519 21.425 96.6419 22.145 96.6419 22.965C96.6419 23.765 96.4519 24.48 96.0719 25.11C95.6919 25.73 95.1669 26.22 94.4969 26.58C93.8269 26.94 93.0669 27.12 92.2169 27.12ZM92.2169 25.2C92.6069 25.2 92.9569 25.11 93.2669 24.93C93.5769 24.75 93.8219 24.495 94.0019 24.165C94.1819 23.825 94.2719 23.425 94.2719 22.965C94.2719 22.495 94.1819 22.095 94.0019 21.765C93.8219 21.435 93.5769 21.18 93.2669 21C92.9569 20.82 92.6069 20.73 92.2169 20.73C91.8269 20.73 91.4769 20.82 91.1669 21C90.8569 21.18 90.6069 21.435 90.4169 21.765C90.2369 22.095 90.1469 22.495 90.1469 22.965C90.1469 23.425 90.2369 23.825 90.4169 24.165C90.6069 24.495 90.8569 24.75 91.1669 24.93C91.4769 25.11 91.8269 25.2 92.2169 25.2ZM102.361 27.12C101.691 27.12 101.091 26.99 100.561 26.73C100.041 26.47 99.636 26.075 99.346 25.545C99.056 25.005 98.911 24.32 98.911 23.49V18.93H101.251V23.145C101.251 23.815 101.391 24.31 101.671 24.63C101.961 24.94 102.366 25.095 102.886 25.095C103.246 25.095 103.566 25.02 103.846 24.87C104.126 24.71 104.346 24.47 104.506 24.15C104.666 23.82 104.746 23.41 104.746 22.92V18.93H107.086V27H104.866V24.78L105.271 25.425C105.001 25.985 104.601 26.41 104.071 26.7C103.551 26.98 102.981 27.12 102.361 27.12ZM114.402 30.03C114.042 30.03 113.697 29.99 113.367 29.91C113.037 29.84 112.757 29.73 112.527 29.58L113.157 27.885C113.427 28.075 113.757 28.17 114.147 28.17C114.437 28.17 114.667 28.07 114.837 27.87C115.017 27.68 115.107 27.39 115.107 27V18.93H117.447V26.985C117.447 27.915 117.182 28.655 116.652 29.205C116.122 29.755 115.372 30.03 114.402 30.03ZM116.277 17.805C115.847 17.805 115.497 17.68 115.227 17.43C114.957 17.18 114.822 16.87 114.822 16.5C114.822 16.13 114.957 15.82 115.227 15.57C115.497 15.32 115.847 15.195 116.277 15.195C116.707 15.195 117.057 15.315 117.327 15.555C117.597 15.785 117.732 16.085 117.732 16.455C117.732 16.845 117.597 17.17 117.327 17.43C117.067 17.68 116.717 17.805 116.277 17.805ZM124.191 27.12C123.331 27.12 122.566 26.94 121.896 26.58C121.236 26.22 120.711 25.73 120.321 25.11C119.941 24.48 119.751 23.765 119.751 22.965C119.751 22.155 119.941 21.44 120.321 20.82C120.711 20.19 121.236 19.7 121.896 19.35C122.566 18.99 123.331 18.81 124.191 18.81C125.041 18.81 125.801 18.99 126.471 19.35C127.141 19.7 127.666 20.185 128.046 20.805C128.426 21.425 128.616 22.145 128.616 22.965C128.616 23.765 128.426 24.48 128.046 25.11C127.666 25.73 127.141 26.22 126.471 26.58C125.801 26.94 125.041 27.12 124.191 27.12ZM124.191 25.2C124.581 25.2 124.931 25.11 125.241 24.93C125.551 24.75 125.796 24.495 125.976 24.165C126.156 23.825 126.246 23.425 126.246 22.965C126.246 22.495 126.156 22.095 125.976 21.765C125.796 21.435 125.551 21.18 125.241 21C124.931 20.82 124.581 20.73 124.191 20.73C123.801 20.73 123.451 20.82 123.141 21C122.831 21.18 122.581 21.435 122.391 21.765C122.211 22.095 122.121 22.495 122.121 22.965C122.121 23.425 122.211 23.825 122.391 24.165C122.581 24.495 122.831 24.75 123.141 24.93C123.451 25.11 123.801 25.2 124.191 25.2ZM135.701 27.12C134.991 27.12 134.381 26.97 133.871 26.67C133.361 26.37 132.971 25.915 132.701 25.305C132.431 24.685 132.296 23.905 132.296 22.965C132.296 22.015 132.436 21.235 132.716 20.625C133.006 20.015 133.406 19.56 133.916 19.26C134.426 18.96 135.021 18.81 135.701 18.81C136.461 18.81 137.141 18.98 137.741 19.32C138.351 19.66 138.831 20.14 139.181 20.76C139.541 21.38 139.721 22.115 139.721 22.965C139.721 23.805 139.541 24.535 139.181 25.155C138.831 25.775 138.351 26.26 137.741 26.61C137.141 26.95 136.461 27.12 135.701 27.12ZM130.931 27V15.87H133.271V20.565L133.121 22.95L133.166 25.35V27H130.931ZM135.296 25.2C135.686 25.2 136.031 25.11 136.331 24.93C136.641 24.75 136.886 24.495 137.066 24.165C137.256 23.825 137.351 23.425 137.351 22.965C137.351 22.495 137.256 22.095 137.066 21.765C136.886 21.435 136.641 21.18 136.331 21C136.031 20.82 135.686 20.73 135.296 20.73C134.906 20.73 134.556 20.82 134.246 21C133.936 21.18 133.691 21.435 133.511 21.765C133.331 22.095 133.241 22.495 133.241 22.965C133.241 23.425 133.331 23.825 133.511 24.165C133.691 24.495 133.936 24.75 134.246 24.93C134.556 25.11 134.906 25.2 135.296 25.2ZM141.884 23.715V21.84H146.129V23.715H141.884ZM148.72 27V18.93H150.955V21.21L150.64 20.55C150.88 19.98 151.265 19.55 151.795 19.26C152.325 18.96 152.97 18.81 153.73 18.81V20.97C153.63 20.96 153.54 20.955 153.46 20.955C153.38 20.945 153.295 20.94 153.205 20.94C152.565 20.94 152.045 21.125 151.645 21.495C151.255 21.855 151.06 22.42 151.06 23.19V27H148.72ZM159.817 27.12C158.897 27.12 158.087 26.94 157.387 26.58C156.697 26.22 156.162 25.73 155.782 25.11C155.402 24.48 155.212 23.765 155.212 22.965C155.212 22.155 155.397 21.44 155.767 20.82C156.147 20.19 156.662 19.7 157.312 19.35C157.962 18.99 158.697 18.81 159.517 18.81C160.307 18.81 161.017 18.98 161.647 19.32C162.287 19.65 162.792 20.13 163.162 20.76C163.532 21.38 163.717 22.125 163.717 22.995C163.717 23.085 163.712 23.19 163.702 23.31C163.692 23.42 163.682 23.525 163.672 23.625H157.117V22.26H162.442L161.542 22.665C161.542 22.245 161.457 21.88 161.287 21.57C161.117 21.26 160.882 21.02 160.582 20.85C160.282 20.67 159.932 20.58 159.532 20.58C159.132 20.58 158.777 20.67 158.467 20.85C158.167 21.02 157.932 21.265 157.762 21.585C157.592 21.895 157.507 22.265 157.507 22.695V23.055C157.507 23.495 157.602 23.885 157.792 24.225C157.992 24.555 158.267 24.81 158.617 24.99C158.977 25.16 159.397 25.245 159.877 25.245C160.307 25.245 160.682 25.18 161.002 25.05C161.332 24.92 161.632 24.725 161.902 24.465L163.147 25.815C162.777 26.235 162.312 26.56 161.752 26.79C161.192 27.01 160.547 27.12 159.817 27.12ZM170.756 27V25.425L170.606 25.08V22.26C170.606 21.76 170.451 21.37 170.141 21.09C169.841 20.81 169.376 20.67 168.746 20.67C168.316 20.67 167.891 20.74 167.471 20.88C167.061 21.01 166.711 21.19 166.421 21.42L165.581 19.785C166.021 19.475 166.551 19.235 167.171 19.065C167.791 18.895 168.421 18.81 169.061 18.81C170.291 18.81 171.246 19.1 171.926 19.68C172.606 20.26 172.946 21.165 172.946 22.395V27H170.756ZM168.296 27.12C167.666 27.12 167.126 27.015 166.676 26.805C166.226 26.585 165.881 26.29 165.641 25.92C165.401 25.55 165.281 25.135 165.281 24.675C165.281 24.195 165.396 23.775 165.626 23.415C165.866 23.055 166.241 22.775 166.751 22.575C167.261 22.365 167.926 22.26 168.746 22.26H170.891V23.625H169.001C168.451 23.625 168.071 23.715 167.861 23.895C167.661 24.075 167.561 24.3 167.561 24.57C167.561 24.87 167.676 25.11 167.906 25.29C168.146 25.46 168.471 25.545 168.881 25.545C169.271 25.545 169.621 25.455 169.931 25.275C170.241 25.085 170.466 24.81 170.606 24.45L170.966 25.53C170.796 26.05 170.486 26.445 170.036 26.715C169.586 26.985 169.006 27.12 168.296 27.12ZM179.337 27.12C178.577 27.12 177.892 26.95 177.282 26.61C176.672 26.26 176.187 25.775 175.827 25.155C175.477 24.535 175.302 23.805 175.302 22.965C175.302 22.115 175.477 21.38 175.827 20.76C176.187 20.14 176.672 19.66 177.282 19.32C177.892 18.98 178.577 18.81 179.337 18.81C180.017 18.81 180.612 18.96 181.122 19.26C181.632 19.56 182.027 20.015 182.307 20.625C182.587 21.235 182.727 22.015 182.727 22.965C182.727 23.905 182.592 24.685 182.322 25.305C182.052 25.915 181.662 26.37 181.152 26.67C180.652 26.97 180.047 27.12 179.337 27.12ZM179.742 25.2C180.122 25.2 180.467 25.11 180.777 24.93C181.087 24.75 181.332 24.495 181.512 24.165C181.702 23.825 181.797 23.425 181.797 22.965C181.797 22.495 181.702 22.095 181.512 21.765C181.332 21.435 181.087 21.18 180.777 21C180.467 20.82 180.122 20.73 179.742 20.73C179.352 20.73 179.002 20.82 178.692 21C178.382 21.18 178.132 21.435 177.942 21.765C177.762 22.095 177.672 22.495 177.672 22.965C177.672 23.425 177.762 23.825 177.942 24.165C178.132 24.495 178.382 24.75 178.692 24.93C179.002 25.11 179.352 25.2 179.742 25.2ZM181.857 27V25.35L181.902 22.95L181.752 20.565V15.87H184.092V27H181.857ZM188.028 30.03C187.608 30.03 187.193 29.965 186.783 29.835C186.373 29.705 186.038 29.525 185.778 29.295L186.633 27.63C186.813 27.79 187.018 27.915 187.248 28.005C187.488 28.095 187.723 28.14 187.953 28.14C188.283 28.14 188.543 28.06 188.733 27.9C188.933 27.75 189.113 27.495 189.273 27.135L189.693 26.145L189.873 25.89L192.768 18.93H195.018L191.373 27.495C191.113 28.145 190.813 28.655 190.473 29.025C190.143 29.395 189.773 29.655 189.363 29.805C188.963 29.955 188.518 30.03 188.028 30.03ZM189.408 27.315L185.808 18.93H188.223L191.013 25.68L189.408 27.315ZM202.006 27V18.75C202.006 17.84 202.276 17.115 202.816 16.575C203.356 16.025 204.126 15.75 205.126 15.75C205.466 15.75 205.791 15.785 206.101 15.855C206.421 15.925 206.691 16.035 206.911 16.185L206.296 17.88C206.166 17.79 206.021 17.72 205.861 17.67C205.701 17.62 205.531 17.595 205.351 17.595C205.011 17.595 204.746 17.695 204.556 17.895C204.376 18.085 204.286 18.375 204.286 18.765V19.515L204.346 20.52V27H202.006ZM200.761 20.91V19.11H206.356V20.91H200.761ZM212.009 27.12C211.149 27.12 210.384 26.94 209.714 26.58C209.054 26.22 208.529 25.73 208.139 25.11C207.759 24.48 207.569 23.765 207.569 22.965C207.569 22.155 207.759 21.44 208.139 20.82C208.529 20.19 209.054 19.7 209.714 19.35C210.384 18.99 211.149 18.81 212.009 18.81C212.859 18.81 213.619 18.99 214.289 19.35C214.959 19.7 215.484 20.185 215.864 20.805C216.244 21.425 216.434 22.145 216.434 22.965C216.434 23.765 216.244 24.48 215.864 25.11C215.484 25.73 214.959 26.22 214.289 26.58C213.619 26.94 212.859 27.12 212.009 27.12ZM212.009 25.2C212.399 25.2 212.749 25.11 213.059 24.93C213.369 24.75 213.614 24.495 213.794 24.165C213.974 23.825 214.064 23.425 214.064 22.965C214.064 22.495 213.974 22.095 213.794 21.765C213.614 21.435 213.369 21.18 213.059 21C212.749 20.82 212.399 20.73 212.009 20.73C211.619 20.73 211.269 20.82 210.959 21C210.649 21.18 210.399 21.435 210.209 21.765C210.029 22.095 209.939 22.495 209.939 22.965C209.939 23.425 210.029 23.825 210.209 24.165C210.399 24.495 210.649 24.75 210.959 24.93C211.269 25.11 211.619 25.2 212.009 25.2ZM218.748 27V18.93H220.983V21.21L220.668 20.55C220.908 19.98 221.293 19.55 221.823 19.26C222.353 18.96 222.998 18.81 223.758 18.81V20.97C223.658 20.96 223.568 20.955 223.488 20.955C223.408 20.945 223.323 20.94 223.233 20.94C222.593 20.94 222.073 21.125 221.673 21.495C221.283 21.855 221.088 22.42 221.088 23.19V27H218.748ZM230.956 27V18.93H233.296V27H230.956ZM232.126 17.805C231.696 17.805 231.346 17.68 231.076 17.43C230.806 17.18 230.671 16.87 230.671 16.5C230.671 16.13 230.806 15.82 231.076 15.57C231.346 15.32 231.696 15.195 232.126 15.195C232.556 15.195 232.906 15.315 233.176 15.555C233.446 15.785 233.581 16.085 233.581 16.455C233.581 16.845 233.446 17.17 233.176 17.43C232.916 17.68 232.566 17.805 232.126 17.805ZM241.123 18.81C241.763 18.81 242.333 18.94 242.833 19.2C243.343 19.45 243.743 19.84 244.033 20.37C244.323 20.89 244.468 21.56 244.468 22.38V27H242.128V22.74C242.128 22.09 241.983 21.61 241.693 21.3C241.413 20.99 241.013 20.835 240.493 20.835C240.123 20.835 239.788 20.915 239.488 21.075C239.198 21.225 238.968 21.46 238.798 21.78C238.638 22.1 238.558 22.51 238.558 23.01V27H236.218V18.93H238.453V21.165L238.033 20.49C238.323 19.95 238.738 19.535 239.278 19.245C239.818 18.955 240.433 18.81 241.123 18.81ZM250.862 27.12C250.102 27.12 249.417 26.95 248.807 26.61C248.197 26.26 247.712 25.775 247.352 25.155C247.002 24.535 246.827 23.805 246.827 22.965C246.827 22.115 247.002 21.38 247.352 20.76C247.712 20.14 248.197 19.66 248.807 19.32C249.417 18.98 250.102 18.81 250.862 18.81C251.542 18.81 252.137 18.96 252.647 19.26C253.157 19.56 253.552 20.015 253.832 20.625C254.112 21.235 254.252 22.015 254.252 22.965C254.252 23.905 254.117 24.685 253.847 25.305C253.577 25.915 253.187 26.37 252.677 26.67C252.177 26.97 251.572 27.12 250.862 27.12ZM251.267 25.2C251.647 25.2 251.992 25.11 252.302 24.93C252.612 24.75 252.857 24.495 253.037 24.165C253.227 23.825 253.322 23.425 253.322 22.965C253.322 22.495 253.227 22.095 253.037 21.765C252.857 21.435 252.612 21.18 252.302 21C251.992 20.82 251.647 20.73 251.267 20.73C250.877 20.73 250.527 20.82 250.217 21C249.907 21.18 249.657 21.435 249.467 21.765C249.287 22.095 249.197 22.495 249.197 22.965C249.197 23.425 249.287 23.825 249.467 24.165C249.657 24.495 249.907 24.75 250.217 24.93C250.527 25.11 250.877 25.2 251.267 25.2ZM253.382 27V25.35L253.427 22.95L253.277 20.565V15.87H255.617V27H253.382ZM261.938 27.12C261.268 27.12 260.668 26.99 260.138 26.73C259.618 26.47 259.213 26.075 258.923 25.545C258.633 25.005 258.488 24.32 258.488 23.49V18.93H260.828V23.145C260.828 23.815 260.968 24.31 261.248 24.63C261.538 24.94 261.943 25.095 262.463 25.095C262.823 25.095 263.143 25.02 263.423 24.87C263.703 24.71 263.923 24.47 264.083 24.15C264.243 23.82 264.323 23.41 264.323 22.92V18.93H266.663V27H264.443V24.78L264.848 25.425C264.578 25.985 264.178 26.41 263.648 26.7C263.128 26.98 262.558 27.12 261.938 27.12ZM272.296 27.12C271.606 27.12 270.941 27.04 270.301 26.88C269.671 26.71 269.171 26.5 268.801 26.25L269.581 24.57C269.951 24.8 270.386 24.99 270.886 25.14C271.396 25.28 271.896 25.35 272.386 25.35C272.926 25.35 273.306 25.285 273.526 25.155C273.756 25.025 273.871 24.845 273.871 24.615C273.871 24.425 273.781 24.285 273.601 24.195C273.431 24.095 273.201 24.02 272.911 23.97C272.621 23.92 272.301 23.87 271.951 23.82C271.611 23.77 271.266 23.705 270.916 23.625C270.566 23.535 270.246 23.405 269.956 23.235C269.666 23.065 269.431 22.835 269.251 22.545C269.081 22.255 268.996 21.88 268.996 21.42C268.996 20.91 269.141 20.46 269.431 20.07C269.731 19.68 270.161 19.375 270.721 19.155C271.281 18.925 271.951 18.81 272.731 18.81C273.281 18.81 273.841 18.87 274.411 18.99C274.981 19.11 275.456 19.285 275.836 19.515L275.056 21.18C274.666 20.95 274.271 20.795 273.871 20.715C273.481 20.625 273.101 20.58 272.731 20.58C272.211 20.58 271.831 20.65 271.591 20.79C271.351 20.93 271.231 21.11 271.231 21.33C271.231 21.53 271.316 21.68 271.486 21.78C271.666 21.88 271.901 21.96 272.191 22.02C272.481 22.08 272.796 22.135 273.136 22.185C273.486 22.225 273.836 22.29 274.186 22.38C274.536 22.47 274.851 22.6 275.131 22.77C275.421 22.93 275.656 23.155 275.836 23.445C276.016 23.725 276.106 24.095 276.106 24.555C276.106 25.055 275.956 25.5 275.656 25.89C275.356 26.27 274.921 26.57 274.351 26.79C273.791 27.01 273.106 27.12 272.296 27.12ZM281.6 27.12C280.65 27.12 279.91 26.88 279.38 26.4C278.85 25.91 278.585 25.185 278.585 24.225V17.145H280.925V24.195C280.925 24.535 281.015 24.8 281.195 24.99C281.375 25.17 281.62 25.26 281.93 25.26C282.3 25.26 282.615 25.16 282.875 24.96L283.505 26.61C283.265 26.78 282.975 26.91 282.635 27C282.305 27.08 281.96 27.12 281.6 27.12ZM277.34 20.91V19.11H282.935V20.91H277.34ZM285.568 27V18.93H287.803V21.21L287.488 20.55C287.728 19.98 288.113 19.55 288.643 19.26C289.173 18.96 289.818 18.81 290.578 18.81V20.97C290.478 20.96 290.388 20.955 290.308 20.955C290.228 20.945 290.143 20.94 290.053 20.94C289.413 20.94 288.893 21.125 288.493 21.495C288.103 21.855 287.908 22.42 287.908 23.19V27H285.568ZM292.734 27V18.93H295.074V27H292.734ZM293.904 17.805C293.474 17.805 293.124 17.68 292.854 17.43C292.584 17.18 292.449 16.87 292.449 16.5C292.449 16.13 292.584 15.82 292.854 15.57C293.124 15.32 293.474 15.195 293.904 15.195C294.334 15.195 294.684 15.315 294.954 15.555C295.224 15.785 295.359 16.085 295.359 16.455C295.359 16.845 295.224 17.17 294.954 17.43C294.694 17.68 294.344 17.805 293.904 17.805ZM302.001 27.12C301.081 27.12 300.271 26.94 299.571 26.58C298.881 26.22 298.346 25.73 297.966 25.11C297.586 24.48 297.396 23.765 297.396 22.965C297.396 22.155 297.581 21.44 297.951 20.82C298.331 20.19 298.846 19.7 299.496 19.35C300.146 18.99 300.881 18.81 301.701 18.81C302.491 18.81 303.201 18.98 303.831 19.32C304.471 19.65 304.976 20.13 305.346 20.76C305.716 21.38 305.901 22.125 305.901 22.995C305.901 23.085 305.896 23.19 305.886 23.31C305.876 23.42 305.866 23.525 305.856 23.625H299.301V22.26H304.626L303.726 22.665C303.726 22.245 303.641 21.88 303.471 21.57C303.301 21.26 303.066 21.02 302.766 20.85C302.466 20.67 302.116 20.58 301.716 20.58C301.316 20.58 300.961 20.67 300.651 20.85C300.351 21.02 300.116 21.265 299.946 21.585C299.776 21.895 299.691 22.265 299.691 22.695V23.055C299.691 23.495 299.786 23.885 299.976 24.225C300.176 24.555 300.451 24.81 300.801 24.99C301.161 25.16 301.581 25.245 302.061 25.245C302.491 25.245 302.866 25.18 303.186 25.05C303.516 24.92 303.816 24.725 304.086 24.465L305.331 25.815C304.961 26.235 304.496 26.56 303.936 26.79C303.376 27.01 302.731 27.12 302.001 27.12ZM310.924 27.12C310.234 27.12 309.569 27.04 308.929 26.88C308.299 26.71 307.799 26.5 307.429 26.25L308.209 24.57C308.579 24.8 309.014 24.99 309.514 25.14C310.024 25.28 310.524 25.35 311.014 25.35C311.554 25.35 311.934 25.285 312.154 25.155C312.384 25.025 312.499 24.845 312.499 24.615C312.499 24.425 312.409 24.285 312.229 24.195C312.059 24.095 311.829 24.02 311.539 23.97C311.249 23.92 310.929 23.87 310.579 23.82C310.239 23.77 309.894 23.705 309.544 23.625C309.194 23.535 308.874 23.405 308.584 23.235C308.294 23.065 308.059 22.835 307.879 22.545C307.709 22.255 307.624 21.88 307.624 21.42C307.624 20.91 307.769 20.46 308.059 20.07C308.359 19.68 308.789 19.375 309.349 19.155C309.909 18.925 310.579 18.81 311.359 18.81C311.909 18.81 312.469 18.87 313.039 18.99C313.609 19.11 314.084 19.285 314.464 19.515L313.684 21.18C313.294 20.95 312.899 20.795 312.499 20.715C312.109 20.625 311.729 20.58 311.359 20.58C310.839 20.58 310.459 20.65 310.219 20.79C309.979 20.93 309.859 21.11 309.859 21.33C309.859 21.53 309.944 21.68 310.114 21.78C310.294 21.88 310.529 21.96 310.819 22.02C311.109 22.08 311.424 22.135 311.764 22.185C312.114 22.225 312.464 22.29 312.814 22.38C313.164 22.47 313.479 22.6 313.759 22.77C314.049 22.93 314.284 23.155 314.464 23.445C314.644 23.725 314.734 24.095 314.734 24.555C314.734 25.055 314.584 25.5 314.284 25.89C313.984 26.27 313.549 26.57 312.979 26.79C312.419 27.01 311.734 27.12 310.924 27.12Z" fill="white"/>
</svg>
