<svg width="70" height="59" viewBox="0 0 70 59" fill="none" xmlns="http://www.w3.org/2000/svg">
<circle cx="45" cy="34" r="25" fill="#F759BC" fill-opacity="0.23"/>
<path d="M2 2H35.9889C40.5677 2 42.8546 2 44.2773 3.42268C45.7 4.84536 45.7 7.13232 45.7 11.7111V26.2778C45.7 30.8566 45.7 33.1435 44.2773 34.5662C42.8546 35.9889 40.5677 35.9889 35.9889 35.9889H18.9944M21.4222 12.925H35.9889M2 38.4167V28.7056C2 26.4162 2 25.2727 2.71134 24.5613C3.42268 23.85 4.56616 23.85 6.85556 23.85H11.7111M2 38.4167H11.7111M2 38.4167V50.5556M11.7111 23.85V38.4167M11.7111 23.85H26.2778M11.7111 38.4167V50.5556" stroke="black" stroke-width="3.64167" stroke-linecap="round" stroke-linejoin="round"/>
<path d="M11.7111 12.9249C11.7111 14.2127 11.1995 15.4477 10.289 16.3583C9.37836 17.2689 8.14333 17.7804 6.85556 17.7804C5.56778 17.7804 4.33275 17.2689 3.42216 16.3583C2.51157 15.4477 2 14.2127 2 12.9249C2 11.6371 2.51157 10.4021 3.42216 9.49149C4.33275 8.5809 5.56778 8.06934 6.85556 8.06934C8.14333 8.06934 9.37836 8.5809 10.289 9.49149C11.1995 10.4021 11.7111 11.6371 11.7111 12.9249Z" stroke="black" stroke-width="3.64167" stroke-linecap="round" stroke-linejoin="round"/>
</svg>
